<?xml version="1.0" encoding="UTF-8"?>
<svg version="1.1" xmlns="http://www.w3.org/2000/svg" width="3018" height="807">
<path d="M0 0 C7.94594566 5.85031164 12.1810258 13.3403144 14.48828125 22.83203125 C17.56848902 23.53407163 20.65279861 24.21608333 23.73828125 24.89453125 C24.61097656 25.09369141 25.48367188 25.29285156 26.3828125 25.49804688 C27.22714844 25.68173828 28.07148438 25.86542969 28.94140625 26.0546875 C29.71645508 26.22750244 30.49150391 26.40031738 31.29003906 26.57836914 C34.73397938 26.97577629 36.78715628 26.34601384 39.56640625 24.30859375 C40.283125 23.69757813 40.99984375 23.0865625 41.73828125 22.45703125 C50.74384349 15.3718797 59.3007753 14.8494958 70.48828125 15.83203125 C78.87251045 17.68052273 85.4484274 22.34655802 90.24609375 29.42578125 C93.49674446 35.26753036 94.6459992 39.7198984 94.86328125 46.39453125 C95.32681346 51.38522803 96.22800429 54.00743188 99.94921875 57.265625 C107.14107954 62.92572195 107.14107954 62.92572195 115.74609375 64.68359375 C116.65101563 64.40257812 117.5559375 64.1215625 118.48828125 63.83203125 C119.19210937 63.64382812 119.8959375 63.455625 120.62109375 63.26171875 C121.60722656 62.98714844 121.60722656 62.98714844 122.61328125 62.70703125 C130.61046853 60.91339565 140.33571773 61.56558985 147.48828125 65.83203125 C155.05547392 71.45204183 161.73460362 78.2475753 163.48828125 87.83203125 C163.97050262 95.27864196 164.02055737 102.09878861 161.14453125 109.0625 C160.31442186 110.98628053 160.31442186 110.98628053 160.48828125 113.83203125 C161.36690931 115.54675226 161.36690931 115.54675226 162.60546875 117.265625 C163.04761719 117.91466797 163.48976563 118.56371094 163.9453125 119.23242188 C164.41324219 119.90466797 164.88117188 120.57691406 165.36328125 121.26953125 C166.27943011 122.6001284 167.19355754 123.93212005 168.10546875 125.265625 C168.51394043 125.85400146 168.92241211 126.44237793 169.34326172 127.04858398 C170.48828125 128.83203125 170.48828125 128.83203125 171.42382812 130.98681641 C172.44852192 133.24144617 172.44852192 133.24144617 175.90234375 133.921875 C177.30371501 134.21550043 178.70756201 134.49748211 180.11328125 134.76953125 C191.06282666 137.22929959 197.78003356 141.60077005 204.48828125 150.83203125 C209.76381263 159.33808466 210.03640857 170.22204945 207.79296875 179.80078125 C206.20147569 184.13392203 204.15685316 187.32979292 201.17578125 190.83203125 C198.71571193 193.92415868 198.12166823 195.69878092 198.48828125 199.64453125 C198.80846309 201.37618135 199.14243129 203.10532448 199.48828125 204.83203125 C199.56046875 205.77949219 199.63265625 206.72695313 199.70703125 207.703125 C200.23107424 213.25104337 200.23107424 213.25104337 203.375 217.6484375 C205.69530397 219.15722599 208.06136633 220.50281634 210.48828125 221.83203125 C217.72812403 226.57587984 221.51304172 233.69213006 224.13671875 241.84765625 C225.82764466 251.39199361 224.37880122 260.56715559 219.73828125 269.01953125 C215.01864051 274.91908217 210.34187868 279.53703249 203.48828125 282.83203125 C202.49828125 282.83203125 201.50828125 282.83203125 200.48828125 282.83203125 C200.42769531 283.47269531 200.36710937 284.11335938 200.3046875 284.7734375 C200.17900391 286.07087891 200.17900391 286.07087891 200.05078125 287.39453125 C199.96957031 288.31234375 199.88835937 289.23015625 199.8046875 290.17578125 C199.48828125 292.83203125 199.48828125 292.83203125 198.48828125 296.39453125 C198.48828125 301.17594742 200.71107246 303.0413914 203.6953125 306.609375 C209.93086666 314.33928855 209.44253199 324.35298388 208.48828125 333.83203125 C206.70524292 342.87797902 200.57409125 350.37950205 193.03125 355.5 C188.76813012 357.78932894 185.09589379 358.96010145 180.30078125 359.51953125 C175.95237305 360.26011952 174.35079334 361.62676874 171.80078125 365.20703125 C170.68204929 367.07337736 169.57871595 368.94901208 168.48828125 370.83203125 C167.43640625 372.30542969 167.43640625 372.30542969 166.36328125 373.80859375 C162.47687118 379.09060553 162.47687118 379.09060553 161.94140625 385.2890625 C162.70063575 386.90108851 163.50263421 388.49346712 164.33984375 390.06640625 C167.39721037 397.42904424 166.48274756 407.50057761 163.52734375 414.84765625 C158.90638515 423.67264486 151.92258547 430.70343185 142.48828125 434.140625 C134.26213229 436.03649527 125.56524533 435.82731489 117.67578125 432.83203125 C114.10017687 431.66349789 113.01124144 431.57265987 109.58203125 433.2734375 C106.64769291 435.35776831 106.64769291 435.35776831 103.9453125 437.73046875 C101.48828125 439.83203125 101.48828125 439.83203125 97.86328125 441.51953125 C94.28868414 445.00006001 94.91284112 448.55341114 94.734375 453.3828125 C94.12029443 461.98968785 90.69662133 468.69389098 84.78125 474.88671875 C76.43154238 481.97045707 67.10548127 483.66812262 56.44970703 483.05419922 C49.42155645 482.25813038 43.4472369 479.27655187 38.86328125 473.95703125 C36.93838723 471.81826012 36.10548231 470.92172829 33.23046875 470.50390625 C30.56137639 470.72144983 28.09573283 471.22450635 25.48828125 471.83203125 C24.50472656 471.96738281 23.52117187 472.10273437 22.5078125 472.2421875 C19.4991516 472.77873865 17.16361805 473.3472653 14.48828125 474.83203125 C13.16522849 477.25762797 12.68064857 479.43283573 12.13671875 482.13671875 C10.42538964 489.25007467 5.47890228 494.35476502 -0.2890625 498.54296875 C-9.05424555 503.62646683 -17.556377 504.18292321 -27.51171875 502.83203125 C-35.62620978 500.42414424 -41.89627669 495.93568649 -46.51171875 488.83203125 C-48.79355389 484.58333821 -50.34175636 480.5118808 -51.51171875 475.83203125 C-59.10171875 474.18203125 -66.69171875 472.53203125 -74.51171875 470.83203125 C-75.17171875 472.15203125 -75.83171875 473.47203125 -76.51171875 474.83203125 C-82.52348906 482.24113195 -90.11638051 486.38796598 -99.51171875 487.83203125 C-109.06810582 488.82062302 -117.62280744 486.19441208 -125.40625 480.62890625 C-131.05457997 475.80843911 -136.25497557 469.30394071 -137.51171875 461.83203125 C-137.4427756 459.79212498 -137.37365122 457.75222392 -137.30224609 455.71240234 C-137.07005012 448.95748281 -137.07005012 448.95748281 -139.9375 443.06445312 C-143.87335447 439.57020324 -148.48663351 436.48778272 -153.51171875 434.83203125 C-156.16188284 434.86806407 -156.16188284 434.86806407 -158.51171875 435.83203125 C-159.37410156 436.08082031 -160.23648438 436.32960938 -161.125 436.5859375 C-162.46111328 436.98619141 -162.46111328 436.98619141 -163.82421875 437.39453125 C-173.65704217 440.0798003 -182.68963288 439.19570943 -191.63671875 434.20703125 C-200.43057431 428.56749345 -205.22298009 421.27043188 -208.26171875 411.39453125 C-208.96912258 404.14364202 -208.63800239 398.09001 -206.265625 391.15625 C-204.5563006 386.19334226 -204.5563006 386.19334226 -205.48828125 381.15625 C-207.30401748 378.25193257 -208.88463605 376.04743863 -211.51171875 373.83203125 C-214.89364668 373.22670563 -217.81030223 373.39344602 -221.23046875 373.66015625 C-229.07269292 374.07093942 -236.47317221 370.68226944 -242.51171875 365.83203125 C-249.80370321 359.20781094 -253.80904856 352.25121625 -254.88671875 342.40625 C-255.19749956 333.51986115 -254.36449335 325.09620382 -248.20703125 318.28125 C-247.37945312 317.45238281 -246.551875 316.62351562 -245.69921875 315.76953125 C-242.53628311 312.57104767 -242.53628311 312.57104767 -241.046875 308.4765625 C-241.28568985 305.81486244 -241.82844158 303.41691578 -242.51171875 300.83203125 C-243.03615092 298.35362337 -243.556832 295.87441949 -244.07421875 293.39453125 C-244.34363281 292.22019531 -244.61304688 291.04585938 -244.890625 289.8359375 C-245.51171875 286.83203125 -245.51171875 286.83203125 -245.51171875 283.83203125 C-246.71828125 283.52265625 -246.71828125 283.52265625 -247.94921875 283.20703125 C-256.24007869 280.00705022 -264.33362151 274.26535956 -268.35668945 266.12158203 C-270.55587619 260.88032831 -271.02089998 256.10278108 -270.94921875 250.45703125 C-270.94164551 249.62139648 -270.93407227 248.78576172 -270.92626953 247.92480469 C-270.69015566 239.07656648 -268.4698679 232.00337715 -262.3515625 225.43359375 C-257.40990973 221.13194272 -252.02895927 217.83110912 -245.51171875 216.83203125 C-245.45113281 216.13078125 -245.39054687 215.42953125 -245.328125 214.70703125 C-245.20244141 213.28390625 -245.20244141 213.28390625 -245.07421875 211.83203125 C-244.99558594 210.81882812 -244.91695312 209.805625 -244.8359375 208.76171875 C-244.51171875 205.83203125 -244.51171875 205.83203125 -243.90625 203.77734375 C-243.25548541 201.4972212 -243.0868718 200.1913755 -243.51171875 197.83203125 C-245.22706336 194.92418192 -247.02472832 192.24336181 -249.08349609 189.57470703 C-255.28463439 181.53071953 -255.65733711 172.6403421 -254.51171875 162.83203125 C-252.257791 153.72196978 -247.26773377 146.10222027 -239.7109375 140.49609375 C-234.45322329 137.50133576 -228.59718528 136.75912919 -222.68359375 135.8359375 C-218.69965153 134.57500997 -217.81909422 133.28153446 -215.51171875 129.83203125 C-214.54478707 128.54648654 -213.57729337 127.26136446 -212.609375 125.9765625 C-206.85641328 118.5440956 -206.85641328 118.5440956 -204.4296875 109.8125 C-205.26017779 107.3366252 -206.3139852 105.14875462 -207.51171875 102.83203125 C-209.61617564 94.12234469 -208.22301812 85.40545842 -203.94921875 77.58203125 C-198.30920399 68.95047581 -190.69643791 64.75963883 -180.94921875 62.14453125 C-174.43426346 61.30928057 -169.34253068 62.28055176 -163.16015625 64.2734375 C-158.88785006 65.17452863 -156.49336084 64.45645278 -152.828125 62.125 C-151.91933594 61.43019531 -151.01054687 60.73539062 -150.07421875 60.01953125 C-149.11773437 59.30152344 -148.16125 58.58351562 -147.17578125 57.84375 C-146.29664063 57.17988281 -145.4175 56.51601562 -144.51171875 55.83203125 C-138.93596117 51.83203125 -138.93596117 51.83203125 -136.51171875 51.83203125 C-136.54652344 51.22617188 -136.58132813 50.6203125 -136.6171875 49.99609375 C-136.95472631 39.54846399 -134.33834082 30.8760419 -127.51171875 22.83203125 C-119.75624634 15.47798081 -111.92428861 13.33324633 -101.4453125 13.41015625 C-92.3814915 13.73265175 -85.04355487 17.58346353 -78.51171875 23.83203125 C-78.18171875 24.82203125 -77.85171875 25.81203125 -77.51171875 26.83203125 C-76.76486816 26.68056641 -76.01801758 26.52910156 -75.24853516 26.37304688 C-71.87833008 25.69071288 -68.50753578 25.01133534 -65.13671875 24.33203125 C-63.96109375 24.09355469 -62.78546875 23.85507813 -61.57421875 23.609375 C-60.45273437 23.38378906 -59.33125 23.15820312 -58.17578125 22.92578125 C-57.1388916 22.71630859 -56.10200195 22.50683594 -55.03369141 22.29101562 C-52.51171875 21.83203125 -52.51171875 21.83203125 -50.51171875 21.83203125 C-50.47046875 21.04828125 -50.42921875 20.26453125 -50.38671875 19.45703125 C-48.41507365 11.28878725 -43.47696942 4.4755317 -36.51171875 -0.16796875 C-35.91359375 -0.58046875 -35.31546875 -0.99296875 -34.69921875 -1.41796875 C-24.44961214 -7.18337247 -9.80711838 -5.79203257 0 0 Z M-20.51171875 6.83203125 C-16.51171875 7.83203125 -16.51171875 7.83203125 -16.51171875 7.83203125 Z M-23.44921875 24.89453125 C-25.68319528 27.66438734 -25.68319528 27.66438734 -26.13671875 30.83203125 C-25.28789883 34.90636685 -23.83446279 36.37609 -20.51171875 38.83203125 C-17.46863584 39.5821832 -17.46863584 39.5821832 -14.51171875 38.83203125 C-11.57663932 36.769543 -10.66736387 35.2892388 -9.51171875 31.89453125 C-9.27152267 28.7511489 -9.27152267 28.7511489 -11.01171875 26.01953125 C-15.25818942 22.30386941 -18.75207693 21.59653806 -23.44921875 24.89453125 Z M-109.51171875 42.83203125 C-111.25865867 45.21422206 -111.53448148 46.37677658 -111.38671875 49.33203125 C-110.09933659 53.01026599 -108.11202119 55.03188003 -104.63671875 56.76953125 C-101.223425 56.86992224 -99.3094536 55.71746126 -96.51171875 53.83203125 C-94.76171875 51.08203125 -94.76171875 51.08203125 -94.51171875 47.83203125 C-95.67434408 44.47333586 -96.55866437 42.48725614 -99.51171875 40.45703125 C-103.7935396 39.11896223 -106.01468587 40.32134098 -109.51171875 42.83203125 Z M56.48828125 42.83203125 C54.14014391 44.76370523 54.14014391 44.76370523 54.11328125 48.20703125 C54.1785715 51.83212208 54.1785715 51.83212208 56.23828125 54.20703125 C59.0986619 56.31430573 59.0986619 56.31430573 62.48828125 56.83203125 C66.38764114 55.27228729 68.1331364 54.36474852 70.48828125 50.83203125 C70.30628945 47.43485101 70.15076486 44.82575666 68.23828125 41.95703125 C63.60791035 38.98036424 60.80304277 39.68342149 56.48828125 42.83203125 Z M-137.51171875 114.83203125 C-138.33285156 115.52941406 -139.15398437 116.22679687 -140 116.9453125 C-174.43435375 146.98612829 -194.10232606 189.46099153 -198.26171875 234.64453125 C-198.36908275 236.70592002 -198.45103373 238.76874067 -198.51171875 240.83203125 C-198.56328125 242.13140625 -198.61484375 243.43078125 -198.66796875 244.76953125 C-200.01133049 293.51912956 -180.91626534 337.77881272 -148.359375 373.171875 C-121.3822069 401.03173163 -82.92601181 419.46215135 -44.51171875 423.83203125 C-43.5784375 423.94289063 -42.64515625 424.05375 -41.68359375 424.16796875 C5.22845976 428.9104441 52.76804173 415.38734598 89.48828125 385.83203125 C93.61726038 382.30134081 97.55755098 378.58043569 101.48828125 374.83203125 C102.31972656 374.06503906 103.15117188 373.29804687 104.0078125 372.5078125 C133.76462194 344.19317476 152.08560782 301.44663699 153.6105957 260.55200195 C153.69508795 256.70747706 153.73486758 252.86482674 153.73828125 249.01953125 C153.73895599 248.33395142 153.73963074 247.64837158 153.74032593 246.9420166 C153.67840722 207.17284903 140.03056362 165.9348637 113.48828125 135.83203125 C112.76898437 135.00316406 112.0496875 134.17429687 111.30859375 133.3203125 C109.0730145 130.78639083 106.79403887 128.30221271 104.48828125 125.83203125 C103.68003906 124.95804688 102.87179687 124.0840625 102.0390625 123.18359375 C70.73295297 90.52041818 25.02112048 73.70612952 -19.66943359 72.54638672 C-62.78681987 72.07707022 -104.78700084 86.74774601 -137.51171875 114.83203125 Z M-181.51171875 89.83203125 C-183.25865867 92.21422206 -183.53448148 93.37677658 -183.38671875 96.33203125 C-182.09933659 100.01026599 -180.11202119 102.03188003 -176.63671875 103.76953125 C-173.223425 103.86992224 -171.3094536 102.71746126 -168.51171875 100.83203125 C-166.76171875 98.08203125 -166.76171875 98.08203125 -166.51171875 94.83203125 C-167.67434408 91.47333586 -168.55866437 89.48725614 -171.51171875 87.45703125 C-175.7935396 86.11896223 -178.01468587 87.32134098 -181.51171875 89.83203125 Z M124.48828125 89.83203125 C122.74134133 92.21422206 122.46551852 93.37677658 122.61328125 96.33203125 C123.90066341 100.01026599 125.88797881 102.03188003 129.36328125 103.76953125 C132.776575 103.86992224 134.6905464 102.71746126 137.48828125 100.83203125 C139.23828125 98.08203125 139.23828125 98.08203125 139.48828125 94.83203125 C138.32565592 91.47333586 137.44133563 89.48725614 134.48828125 87.45703125 C130.2064604 86.11896223 127.98531413 87.32134098 124.48828125 89.83203125 Z M-222.51171875 146.83203125 C-222.51171875 147.16203125 -222.51171875 147.49203125 -222.51171875 147.83203125 C-219.87171875 147.83203125 -217.23171875 147.83203125 -214.51171875 147.83203125 C-214.51171875 147.50203125 -214.51171875 147.17203125 -214.51171875 146.83203125 C-217.15171875 146.83203125 -219.79171875 146.83203125 -222.51171875 146.83203125 Z M-222.32421875 161.95703125 C-224.59366086 163.90226734 -225.67164682 164.97578668 -226.51171875 167.83203125 C-226.34874943 171.09141759 -225.75532834 172.52961935 -223.69921875 175.08203125 C-220.91828416 177.3277009 -220.91828416 177.3277009 -217.51171875 177.83203125 C-213.64759709 176.51822988 -211.94983601 175.62064232 -209.94921875 172.01953125 C-209.37644243 167.84644664 -209.99084138 166.19320108 -212.51171875 162.83203125 C-216.37104868 161.04530443 -218.32356036 160.35676789 -222.32421875 161.95703125 Z M170.48828125 163.83203125 C168.14014391 165.76370523 168.14014391 165.76370523 168.11328125 169.20703125 C168.1785715 172.83212208 168.1785715 172.83212208 170.23828125 175.20703125 C173.0986619 177.31430573 173.0986619 177.31430573 176.48828125 177.83203125 C179.65798903 176.62754229 181.84273125 175.67405299 183.92578125 172.95703125 C184.67066122 170.14304025 184.45051969 168.58128394 183.48828125 165.83203125 C181.66324451 163.5664684 180.16843142 162.16113617 177.55078125 160.89453125 C174.51843856 160.80264208 172.91605287 162.10703562 170.48828125 163.83203125 Z M-230.51171875 207.83203125 C-229.51171875 209.83203125 -229.51171875 209.83203125 -229.51171875 209.83203125 Z M-202.51171875 234.83203125 C-201.51171875 237.83203125 -201.51171875 237.83203125 -201.51171875 237.83203125 Z M157.48828125 234.83203125 C158.48828125 238.83203125 158.48828125 238.83203125 158.48828125 238.83203125 Z M-242.51171875 245.83203125 C-243.34505208 248.83203125 -243.34505208 248.83203125 -242.51171875 251.83203125 C-240.02569426 255.19547614 -238.59746352 256.63260874 -234.44921875 257.39453125 C-230.79916296 256.6955844 -229.65607264 255.8500108 -227.51171875 252.83203125 C-226.59637957 249.69372549 -226.24002623 247.72120677 -227.19921875 244.58203125 C-229.35747394 241.70435766 -231.47276346 241.01851041 -234.94921875 240.39453125 C-238.79153863 241.05053708 -240.19081567 242.78170149 -242.51171875 245.83203125 Z M187.48828125 242.83203125 C185.14278451 246.35027636 184.90836722 247.68978819 185.48828125 251.83203125 C187.9442225 255.15477529 189.41394565 256.60821133 193.48828125 257.45703125 C197.56261685 256.60821133 199.03234 255.15477529 201.48828125 251.83203125 C202.32161458 248.83203125 202.32161458 248.83203125 201.48828125 245.83203125 C199.16737817 242.78170149 197.76810113 241.05053708 193.92578125 240.39453125 C191.37101178 240.85307962 189.65792148 241.41054282 187.48828125 242.83203125 Z M-258.51171875 246.83203125 C-258.51171875 248.81203125 -258.51171875 250.79203125 -258.51171875 252.83203125 C-258.18171875 252.83203125 -257.85171875 252.83203125 -257.51171875 252.83203125 C-257.51171875 250.85203125 -257.51171875 248.87203125 -257.51171875 246.83203125 C-257.84171875 246.83203125 -258.17171875 246.83203125 -258.51171875 246.83203125 Z M157.48828125 259.83203125 C158.48828125 262.83203125 158.48828125 262.83203125 158.48828125 262.83203125 Z M-202.51171875 260.83203125 C-201.51171875 262.83203125 -201.51171875 262.83203125 -201.51171875 262.83203125 Z M172.73828125 317.08203125 C170.45210445 318.78551822 170.45210445 318.78551822 168.48828125 320.83203125 C168.0544887 324.73616422 167.86231806 326.95104603 170.17578125 330.20703125 C172.84393464 332.08194985 174.2137192 332.83203125 177.48828125 332.83203125 C181.29572367 331.00153008 183.09560337 329.9176701 184.55078125 325.89453125 C184.47487535 322.17514225 183.91415166 320.64917108 181.48828125 317.83203125 C177.91444867 315.96742295 176.46201329 315.38942578 172.73828125 317.08203125 Z M-223.88671875 329.51953125 C-225.73093682 332.14399542 -226.43340898 333.62133072 -226.51171875 336.83203125 C-225.26718852 339.64859967 -224.15398715 341.34479316 -221.69921875 343.20703125 C-218.6065497 344.09065098 -216.57926672 343.74576894 -213.51171875 342.83203125 C-211.16295526 340.48326776 -209.71456878 338.1790568 -209.51171875 334.83203125 C-210.91094065 332.03358744 -212.29963258 330.04411742 -214.51171875 327.83203125 C-218.41585172 327.3982387 -220.63073353 327.20606806 -223.88671875 329.51953125 Z M125.11328125 391.51953125 C123.23836265 394.18768464 122.48828125 395.5574692 122.48828125 398.83203125 C124.31878242 402.63947367 125.4026424 404.43935337 129.42578125 405.89453125 C133.14517025 405.81862535 134.67114142 405.25790166 137.48828125 402.83203125 C139.15901167 400.06988153 139.15901167 400.06988153 139.48828125 396.83203125 C137.95916046 392.50586845 137.95916046 392.50586845 134.48828125 389.83203125 C129.47706741 389.34477876 129.47706741 389.34477876 125.11328125 391.51953125 Z M-180.88671875 396.51953125 C-182.76163735 399.18768464 -183.51171875 400.5574692 -183.51171875 403.83203125 C-181.68121758 407.63947367 -180.5973576 409.43935337 -176.57421875 410.89453125 C-172.96665976 410.8209076 -171.34508107 410.01776789 -168.51171875 407.83203125 C-166.96584999 404.74029373 -167.21812354 402.23773573 -167.51171875 398.83203125 C-168.92838542 396.24869792 -168.92838542 396.24869792 -171.51171875 394.83203125 C-175.49624859 394.2628127 -177.56665623 394.16053946 -180.88671875 396.51953125 Z M83.48828125 436.83203125 C84.48828125 438.83203125 84.48828125 438.83203125 84.48828125 438.83203125 Z M-110.51171875 442.83203125 C-111.67382094 445.2255462 -111.67382094 445.2255462 -111.51171875 447.83203125 C-109.89016246 451.31837726 -108.74718583 452.67505319 -105.51171875 454.83203125 C-102.11453851 454.65003945 -99.50544416 454.49451486 -96.63671875 452.58203125 C-95.1270853 450.23371255 -94.6450882 448.63278977 -94.51171875 445.83203125 C-96.13327504 442.34568524 -97.27625167 440.98900931 -100.51171875 438.83203125 C-105.1239126 438.10379012 -107.3154603 439.54698785 -110.51171875 442.83203125 Z M56.55078125 440.89453125 C54.31680472 443.66438734 54.31680472 443.66438734 53.86328125 446.83203125 C54.71210117 450.90636685 56.16553721 452.37609 59.48828125 454.83203125 C62.53136416 455.5821832 62.53136416 455.5821832 65.48828125 454.83203125 C68.42336068 452.769543 69.33263613 451.2892388 70.48828125 447.89453125 C70.72847733 444.7511489 70.72847733 444.7511489 68.98828125 442.01953125 C64.74181058 438.30386941 61.24792307 437.59653806 56.55078125 440.89453125 Z M-126.51171875 444.83203125 C-125.51171875 448.83203125 -125.51171875 448.83203125 -125.51171875 448.83203125 Z M-126.51171875 449.83203125 C-125.51171875 451.83203125 -125.51171875 451.83203125 -125.51171875 451.83203125 Z M-23.51171875 458.83203125 C-25.85985609 460.76370523 -25.85985609 460.76370523 -25.88671875 464.20703125 C-25.78985286 467.80067156 -25.78985286 467.80067156 -23.94921875 470.26953125 C-20.52857732 472.46225012 -18.50220596 472.46210818 -14.51171875 471.83203125 C-11.36513209 469.93553574 -11.36513209 469.93553574 -9.51171875 466.83203125 C-9.51171875 463.2601646 -9.76579608 460.95091526 -11.76171875 457.95703125 C-16.39208965 454.98036424 -19.19695723 455.68342149 -23.51171875 458.83203125 Z " fill="#80317B" transform="translate(422.51171875,154.16796875)"/>
<path d="M0 0 C2.16030582 0.04932783 4.32062586 0.09803541 6.48095703 0.14624023 C7.64451721 0.17402557 8.80807739 0.20181091 10.00689697 0.23043823 C33.21141198 0.77358006 56.40660851 0.91836547 79.6171875 0.87890625 C80.88790981 0.87703875 82.15863213 0.87517124 83.46786118 0.87324715 C96.43800018 0.85375622 109.40801668 0.82352333 122.37805557 0.76843834 C127.30970698 0.74935084 132.24135653 0.73809035 137.17303467 0.72853088 C139.50477408 0.72204157 141.83650632 0.71186438 144.16821289 0.69789124 C147.38188282 0.67882379 150.59536342 0.67186091 153.80908203 0.66772461 C154.7592174 0.65896522 155.70935276 0.65020582 156.68828011 0.64118099 C157.55492727 0.64248296 158.42157444 0.64378492 159.31448364 0.64512634 C160.06579119 0.64198394 160.81709873 0.63884153 161.59117317 0.6356039 C163.5546875 0.87890625 163.5546875 0.87890625 166.5546875 2.87890625 C166.9296875 5.87890625 166.9296875 5.87890625 166.5546875 8.87890625 C162.12570201 11.83156325 157.96053752 11.99744577 152.73046875 12.30859375 C151.61865234 12.38207031 150.50683594 12.45554688 149.36132812 12.53125 C147.05183986 12.67841694 144.74193211 12.81915699 142.43164062 12.953125 C131.73399777 13.68068803 122.21889253 15.21470122 114.3671875 23.06640625 C110.21645785 29.50719363 109.02877246 36.74676822 108.38513184 44.26707458 C108.3054257 45.13383456 108.22571956 46.00059453 108.14359808 46.89361995 C107.37944588 55.81960556 107.26123389 64.71516476 107.26757812 73.66821289 C107.2615296 75.44686692 107.25459939 77.22551812 107.24687195 79.00416565 C107.23214838 82.79284037 107.22327562 86.58146394 107.21916199 90.37016487 C107.21234124 96.40091605 107.19046058 102.43156042 107.16662598 108.46226501 C107.11798242 121.28862004 107.08553258 134.11499798 107.0546875 146.94140625 C107.02138842 160.74733514 106.98486879 174.55322136 106.93055677 188.35908598 C106.91135557 193.35380324 106.89591935 198.34846552 106.89021301 203.34321785 C106.86768034 222.32905603 106.72918744 241.27304554 105.64257812 260.23217773 C105.60280948 260.93825169 105.56304083 261.64432564 105.52206707 262.37179577 C103.1847274 302.71525874 93.59647046 343.69319585 66.5546875 374.87890625 C65.84699219 375.70777344 65.13929688 376.53664063 64.41015625 377.390625 C29.71445029 417.0689017 -26.09119959 436.15935633 -77.4453125 439.87890625 C-91.0941942 440.72212575 -104.77186413 441.16103069 -118.4453125 440.87890625 C-119.40179687 440.86102051 -120.35828125 440.84313477 -121.34375 440.82470703 C-183.08761323 439.5193198 -244.28374113 427.00911342 -288.4921875 381.16796875 C-321.30366172 346.16802818 -328.53140418 296.0362954 -328.63476562 249.99389648 C-328.64272405 248.01460093 -328.65111322 246.03530708 -328.65989685 244.05601501 C-328.67785296 239.8159326 -328.69290444 235.57585366 -328.70567322 231.33575249 C-328.72604869 224.61240648 -328.75368169 217.88910181 -328.78234863 211.16578674 C-328.8422379 196.88267947 -328.89413392 182.59954697 -328.9453125 168.31640625 C-329.00056326 152.91581488 -329.05732413 137.51523619 -329.12286139 122.11468464 C-329.15095402 115.45084239 -329.17464019 108.78700434 -329.19478607 102.12313354 C-329.20832446 97.95178886 -329.22572641 93.78046632 -329.24409676 89.6091404 C-329.2517485 87.69698024 -329.25786208 85.78481309 -329.26218987 83.87264252 C-329.28471802 74.28018198 -329.42645244 64.70902846 -329.88293457 55.12635803 C-329.91987411 54.32573958 -329.95681365 53.52512112 -329.99487257 52.70024151 C-330.73511059 37.06242956 -330.73511059 37.06242956 -337.65234375 23.45703125 C-342.1672277 19.48314646 -346.5365759 17.26937448 -352.3203125 15.69140625 C-353.47273438 15.36785156 -354.62515625 15.04429687 -355.8125 14.7109375 C-364.93945492 12.62057041 -374.09851982 12.58408894 -383.421875 12.36132812 C-396.37547525 11.9487435 -396.37547525 11.9487435 -399.4453125 8.87890625 C-399.6953125 5.94140625 -399.6953125 5.94140625 -399.4453125 2.87890625 C-395.58802121 0.30737872 -392.42122758 0.5977258 -387.94923401 0.61820984 C-387.07152924 0.61438429 -386.19382447 0.61055874 -385.28952259 0.60661727 C-382.33691641 0.59626608 -379.38450393 0.60028343 -376.43188477 0.60424805 C-374.31973083 0.59990275 -372.20757847 0.59472022 -370.09542847 0.58876038 C-364.34963533 0.57533965 -358.60390785 0.57479511 -352.85810208 0.57732368 C-348.0666103 0.57839129 -343.27513192 0.57351542 -338.483643 0.56871825 C-327.18268871 0.55761248 -315.88176766 0.55719171 -304.58081055 0.56323242 C-292.91045559 0.56927453 -281.24022113 0.55695758 -269.56988674 0.53566235 C-259.56049693 0.51806741 -249.55114555 0.51204165 -239.54174083 0.5153001 C-233.55901404 0.51711643 -227.57637319 0.51444193 -221.59366035 0.50058556 C-215.96876759 0.48804606 -210.34406317 0.4899145 -204.71917343 0.50299644 C-202.65193939 0.50537024 -200.58469226 0.502599 -198.51747322 0.49437332 C-195.70088594 0.48397195 -192.88493836 0.49195317 -190.06837463 0.50468445 C-189.24551848 0.49731016 -188.42266232 0.48993588 -187.57487112 0.48233813 C-183.27376904 0.52339014 -180.54647613 0.74473168 -177.4453125 3.87890625 C-177.7753125 5.85890625 -178.1053125 7.83890625 -178.4453125 9.87890625 C-182.49931233 11.36961302 -186.0591715 12.17129905 -190.3671875 12.40625 C-192.03007813 12.51163086 -192.03007813 12.51163086 -193.7265625 12.61914062 C-196.02326841 12.74975284 -198.32014509 12.87739888 -200.6171875 13.00195312 C-211.02318753 13.6703941 -221.14341139 14.99471542 -228.47265625 23.12890625 C-230.58548214 26.07431106 -231.59090677 28.54222763 -232.6328125 32.00390625 C-233.11814453 33.55464844 -233.11814453 33.55464844 -233.61328125 35.13671875 C-235.82366381 45.07825156 -235.72597705 55.42448211 -235.99731445 65.56933594 C-236.02868655 66.6976528 -236.02868655 66.6976528 -236.06069243 67.84876394 C-236.55541125 85.9440519 -236.60986437 104.03765154 -236.61256957 122.13861942 C-236.61329437 124.88168846 -236.61545432 127.62475288 -236.61806679 130.36782074 C-236.62722493 140.01279506 -236.63141293 149.65775585 -236.63061523 159.30273438 C-236.63001362 168.17731884 -236.64060693 177.05184272 -236.6563589 185.92641187 C-236.66956958 193.65492949 -236.67479371 201.38342758 -236.67415982 209.11195636 C-236.67390923 213.68044624 -236.67651113 218.2488817 -236.68733788 222.81735992 C-237.59237909 295.04519809 -237.59237909 295.04519809 -209.4453125 359.87890625 C-209.04860352 360.40581055 -208.65189453 360.93271484 -208.24316406 361.47558594 C-187.9501056 388.00297423 -155.89014865 402.13205998 -123.51171875 406.9921875 C-114.51472927 408.12865527 -105.56759193 408.2757235 -96.5078125 408.25390625 C-95.22697281 408.25309052 -95.22697281 408.25309052 -93.92025757 408.2522583 C-79.77857495 408.21099667 -66.22903682 407.25706561 -52.4453125 403.87890625 C-51.59066406 403.67523437 -50.73601562 403.4715625 -49.85546875 403.26171875 C-21.46286153 396.2608019 6.53176356 381.04924572 22.5546875 355.87890625 C40.97686726 324.2908752 42.71036526 287.4531561 42.69995117 251.78295898 C42.70295049 249.70956869 42.70635477 247.63617895 42.71012878 245.56278992 C42.71889503 239.97559139 42.72130378 234.38840823 42.72194457 228.80120349 C42.72265935 225.29730304 42.72480172 221.7934064 42.72744179 218.28950691 C42.73667127 206.02788168 42.74077974 193.76626726 42.73999023 181.50463867 C42.7393903 170.13604544 42.7499318 158.76749978 42.7657339 147.39891857 C42.77887766 137.5876997 42.78417127 127.77649626 42.78353482 117.96526867 C42.78328181 112.12802232 42.78602279 106.29081831 42.79671288 100.45358086 C42.80650965 94.95489359 42.80639516 89.45628815 42.79919624 83.95759773 C42.79816457 81.95961002 42.80042691 79.96161688 42.8065567 77.96363831 C42.83656382 67.48993441 42.57753953 57.0756372 41.789505 46.62879944 C41.72873156 45.70039952 41.66795811 44.7719996 41.60534304 43.81546634 C40.90193583 35.5895045 39.00767393 27.93952569 32.9921875 22.00390625 C20.95917259 12.55098326 4.67186723 12.60720798 -9.9050293 12.39575195 C-15.83977646 12.24792149 -20.17498912 11.66645388 -25.4453125 8.87890625 C-25.6953125 6.56640625 -25.6953125 6.56640625 -25.4453125 3.87890625 C-19.22166206 -2.07877097 -8.0465362 -0.23672509 0 0 Z " fill="#2761AB" transform="translate(1495.4453125,187.12109375)"/>
<path d="M0 0 C4.48179486 4.09207357 7.20135531 8.93884888 10.1394043 14.20068359 C10.53388354 14.90550055 10.92836279 15.6103175 11.33479595 16.33649254 C15.70032998 24.18767001 19.81572586 32.16117833 23.89453125 40.1640625 C24.32443674 41.00519215 24.75434223 41.84632179 25.19727516 42.71294022 C40.58061863 72.82189589 55.59404475 103.12010769 70.6875 133.375 C75.66286317 143.34799975 80.6389627 153.32062932 85.61895114 163.29132044 C87.41097717 166.87947279 89.20217305 170.46803394 90.99124718 174.05765915 C97.37823728 186.87229782 103.76433463 199.6805298 110.48316479 212.32561302 C114.82490714 220.51169078 118.95699111 228.80059125 123.08546448 237.09576416 C124.51520522 239.96833577 125.94767033 242.83953566 127.3807373 245.71044922 C130.93539468 252.83293642 134.48561931 259.95763065 138.03594971 267.08227539 C141.05287255 273.13606171 144.07155153 279.18896648 147.09242249 285.24078369 C148.48416447 288.03061422 149.87343941 290.8216631 151.26257324 293.61279297 C156.34003079 303.79652851 161.53538655 313.90778987 166.87002563 323.95927429 C169.64239602 329.19249571 172.26407738 334.49737354 174.875 339.8125 C198.70024342 390.49156438 198.70024342 390.49156438 242 423 C252.47734967 426.03003492 263.35165807 426.22161199 274.1796875 426.51757812 C282.89953271 426.83586449 282.89953271 426.83586449 287 429 C287.125 431.875 287.125 431.875 287 435 C280.62593044 441.37406956 265.23184662 439.11587601 256.80908203 439.1388092 C255.61009277 439.13683029 254.41110352 439.13485138 253.17578125 439.1328125 C251.21233765 439.13485939 251.21233765 439.13485939 249.20922852 439.13694763 C245.65132078 439.13974347 242.0934583 439.13535839 238.53555679 439.12877274 C236.29570713 439.1249715 234.05586175 439.12292277 231.81600952 439.12130737 C207.79686736 439.10099907 183.7804097 438.90326383 159.76333237 438.59383392 C157.33430703 438.5627788 154.90526928 438.53291609 152.47622681 438.50323486 C105.44549807 437.9190601 105.44549807 437.9190601 100 435 C99.1875 432.375 99.1875 432.375 99 430 C101.99105735 427.94364807 104.61242691 426.76472993 108.125 426 C111.22369005 425.28805991 113.18227724 424.78004658 115 422 C116.17496633 418.71769761 115.93220645 417.0831485 114.47607422 413.94848633 C113.93867111 412.77149422 113.93867111 412.77149422 113.39041138 411.57072449 C112.9908725 410.72883072 112.59133362 409.88693695 112.1796875 409.01953125 C111.77056122 408.13554153 111.36143494 407.25155182 110.93991089 406.34077454 C109.64234151 403.55278051 108.32519531 400.77496021 107 398 C106.59189087 397.14533142 106.18378174 396.29066284 105.76330566 395.41009521 C103.33829829 390.35380899 100.87812918 385.31528181 98.40234375 380.28369141 C96.20168744 375.81087429 94.01183995 371.33276371 91.8203125 366.85546875 C91.39486145 365.9869931 90.9694104 365.11851746 90.53106689 364.22372437 C87.31981366 357.66527059 84.14129121 351.09230397 81 344.5 C80.58669434 343.6327832 80.17338867 342.76556641 79.74755859 341.87207031 C78.92967832 340.15461899 78.11212991 338.43700958 77.29492188 336.71923828 C72.88900188 327.46713856 68.45421479 318.2289358 64 309 C63.61231445 308.19449707 63.22462891 307.38899414 62.82519531 306.55908203 C61.84868541 304.53592862 60.86405665 302.51704196 59.875 300.5 C59.35679687 299.4378125 58.83859375 298.375625 58.3046875 297.28125 C57.20673768 294.87237161 57.20673768 294.87237161 55 294 C52.87838532 293.8992535 50.75353055 293.8648724 48.62953186 293.85955811 C47.96840423 293.85658698 47.30727659 293.85361586 46.62611479 293.8505547 C44.40055149 293.84185104 42.17504188 293.84035807 39.94946289 293.83886719 C38.35799545 293.83424026 36.76652912 293.82921577 35.17506409 293.82382202 C30.84454111 293.8106855 26.51403365 293.80425084 22.18349385 293.79981136 C19.48018576 293.79688316 16.77688193 293.79277887 14.07357597 293.78830719 C5.62190427 293.77463007 -2.82975771 293.76496399 -11.28143972 293.7611053 C-21.04980814 293.75662136 -30.81803685 293.73905883 -40.58636278 293.7101047 C-48.12949028 293.68851933 -55.67257838 293.67840273 -63.21573645 293.67706418 C-67.72461248 293.67601405 -72.23335723 293.67006216 -76.74220085 293.65224457 C-80.98161397 293.6358177 -85.22079635 293.63358198 -89.46022987 293.64238358 C-91.01832063 293.64315681 -92.57642352 293.63877378 -94.13448334 293.62892532 C-96.25744982 293.61629039 -98.37958852 293.6220354 -100.50254822 293.63250732 C-102.28646925 293.63030748 -102.28646925 293.63030748 -104.1064291 293.6280632 C-106.98396713 293.75693631 -106.98396713 293.75693631 -108.80965519 295.35237503 C-110.56865263 297.78710493 -111.8535827 300.35606914 -113.1875 303.046875 C-113.48607407 303.64548843 -113.78464813 304.24410187 -114.0922699 304.8608551 C-115.06766204 306.82091984 -116.03402933 308.78527718 -117 310.75 C-117.6807435 312.12410434 -118.36181783 313.49804482 -119.04321289 314.87182617 C-123.33803882 323.54809734 -127.57079994 332.25386293 -131.71142578 341.00488281 C-134.09769113 346.04499914 -136.51698717 351.06632112 -138.98823547 356.06523132 C-140.43107891 358.98397235 -141.8671269 361.90604165 -143.30349731 364.82797241 C-144.00392977 366.24780891 -144.70763328 367.66603765 -145.41500854 369.08242798 C-157.05796504 391.5715231 -157.05796504 391.5715231 -158 416 C-156.52513735 419.55307819 -155.26256498 421.35825349 -151.80541992 423.11547852 C-144.34080217 425.98372144 -137.63985586 426.58841642 -129.6875 426.625 C-127.42046503 426.6506307 -125.15350312 426.68421743 -122.88671875 426.7265625 C-121.89889404 426.73252441 -120.91106934 426.73848633 -119.89331055 426.74462891 C-116.5320993 427.04129813 -112.4870069 427.5129931 -110 430 C-109.71081265 432.74727982 -109.60943704 434.39245761 -111.125 436.75 C-115.64903931 439.76602621 -121.68280293 439.14224841 -126.9375 439.09375 C-128.05729248 439.08837219 -128.05729248 439.08837219 -129.19970703 439.08288574 C-135.16696942 439.04020825 -141.12654572 438.86429622 -147.08984375 438.64404297 C-180.31170718 437.42021059 -213.56648195 437.74925721 -246.79223633 438.63964844 C-256.25834307 438.89301212 -265.71732225 439.10709937 -275.1875 439.125 C-276.57594116 439.13176758 -276.57594116 439.13176758 -277.99243164 439.13867188 C-290.2788083 439.11044626 -290.2788083 439.11044626 -293.9375 436.75 C-295.39100294 434.35599515 -295.35256314 432.7499925 -295 430 C-291.89241494 426.89241494 -288.72959389 426.88515409 -284.47265625 426.75390625 C-283.60439209 426.72256592 -282.73612793 426.69122559 -281.84155273 426.65893555 C-280.92446533 426.62711182 -280.00737793 426.59528809 -279.0625 426.5625 C-258.0044233 425.66522562 -239.03451875 421.89289093 -224 406 C-216.84886339 397.74773682 -211.96136949 388.3584471 -207.01789856 378.68203735 C-206.35454774 377.39087572 -205.69098758 376.09982162 -205.02723008 374.808869 C-198.68106635 362.44685735 -192.44813396 350.02802527 -186.24593151 337.59326959 C-184.65856663 334.41197853 -183.06873541 331.23192011 -181.47923279 328.05169678 C-178.74283066 322.57604697 -176.00783896 317.09969475 -173.27383995 311.6228447 C-169.31078082 303.68399173 -165.34500292 295.74649913 -161.37855396 287.80933936 C-154.92469318 274.89459963 -148.47233093 261.97911192 -142.02124023 249.06298828 C-141.63758471 248.29484942 -141.25392919 247.52671057 -140.85864774 246.73529477 C-138.13489257 241.28188279 -135.41119156 235.82844376 -132.6875 230.375 C-129.56734185 224.12774674 -126.44715483 217.8805079 -123.3269043 211.63330078 C-122.7498715 210.47799299 -122.7498715 210.47799299 -122.16118147 209.29934566 C-115.72328802 196.40982457 -109.28379324 183.52110412 -102.84318 170.63294184 C-98.89063376 162.72340157 -94.93949771 154.81316002 -90.9902641 146.90196522 C-88.28415063 141.48124641 -85.57657662 136.06125873 -82.86790337 130.64181857 C-81.31214401 127.52896968 -79.75701856 124.41580878 -78.20373535 121.30172348 C-71.9736048 108.81452076 -65.68806592 96.36811925 -59.13322353 84.04779243 C-55.92776684 78.00591899 -52.91006959 71.87030831 -49.89056015 65.73402405 C-48.82404045 63.56864767 -47.75298755 61.40556491 -46.68069458 59.24304199 C-43.64045352 53.11169209 -40.60188123 46.97957059 -37.58056641 40.83886719 C-35.71050869 37.03887798 -33.83037852 33.24401699 -31.94382095 29.45219421 C-31.23777396 28.0285076 -30.53531947 26.60303248 -29.83684921 25.1756134 C-19.45535914 3.97023943 -19.45535914 3.97023943 -12 -1 C-7.5020979 -2.4993007 -4.33224357 -1.82410256 0 0 Z M-26 116 C-31.39392546 126.67571849 -36.6164343 137.41748953 -41.6875 148.25 C-42.38572265 149.73784033 -43.08404819 151.22563238 -43.7824707 152.71337891 C-49.70632894 165.34042273 -55.58453528 177.98858365 -61.4453125 190.64501953 C-63.49891894 195.0766558 -65.5581924 199.50564573 -67.61816406 203.93432617 C-68.66122514 206.1796336 -69.70225408 208.42588621 -70.74121094 210.6730957 C-73.67012894 217.00597499 -76.62332311 223.3259575 -79.61320496 229.63032532 C-81.31056697 233.2150058 -82.99663846 236.80493798 -84.68130493 240.39559937 C-85.51646715 242.16864776 -86.35659527 243.93936583 -87.20175171 245.70767212 C-88.38555517 248.18604205 -89.55193514 250.67192877 -90.71484375 253.16015625 C-91.07761414 253.90883972 -91.44038452 254.65752319 -91.81414795 255.42889404 C-92.91106383 257.71827932 -92.91106383 257.71827932 -94 261 C-93.34 261.99 -92.68 262.98 -92 264 C-89.60352502 264.45058242 -89.60352502 264.45058242 -86.76171875 264.36749268 C-85.65119141 264.37306183 -84.54066406 264.37863098 -83.39648438 264.3843689 C-81.56053711 264.37054672 -81.56053711 264.37054672 -79.6875 264.35644531 C-77.76067383 264.35951187 -77.76067383 264.35951187 -75.79492188 264.36264038 C-72.26598051 264.36778422 -68.73732966 264.35421966 -65.20843506 264.33711338 C-61.52047421 264.3221033 -57.83251754 264.32325202 -54.14453125 264.32244873 C-47.95047023 264.31875348 -41.75651984 264.30377342 -35.5625 264.28125 C-27.6058615 264.25237657 -19.64931215 264.24202722 -11.69262695 264.2375679 C-4.86064561 264.23359054 1.97131627 264.22108779 8.80328369 264.20722103 C11.00345821 264.20311855 13.20363203 264.20019468 15.40380859 264.19742584 C19.49840772 264.19163144 23.59292739 264.17695871 27.6875 264.16113281 C28.91146484 264.16001495 30.13542969 264.15889709 31.39648438 264.15774536 C32.50701172 264.15203522 33.61753906 264.14632507 34.76171875 264.14044189 C35.73069092 264.13746723 36.69966309 264.13449257 37.69799805 264.13142776 C40.02835107 264.15061787 40.02835107 264.15061787 42 263 C41.35077553 258.60781905 39.7272757 254.86069773 37.859375 250.875 C37.54119812 250.18450562 37.22302124 249.49401123 36.89520264 248.78259277 C36.20954398 247.2959705 35.5214948 245.8104489 34.83129883 244.32592773 C32.98643567 240.35753502 31.15885062 236.38117891 29.328125 232.40625 C28.9578418 231.60368774 28.58755859 230.80112549 28.20605469 229.97424316 C24.91698108 222.83981287 21.69838651 215.67558114 18.5 208.5 C13.39261668 197.06022699 8.19934145 185.66181145 2.97930908 174.27313232 C-2.29384572 162.76596489 -7.50865975 151.23422997 -12.6640625 139.67382812 C-13.62433447 137.5221549 -14.5880602 135.37201888 -15.55566406 133.22363281 C-16.58223443 130.93241659 -17.59297721 128.63408009 -18.59277344 126.33105469 C-19.11645508 125.14672852 -19.64013672 123.96240234 -20.1796875 122.7421875 C-20.64874512 121.66565918 -21.11780273 120.58913086 -21.60107422 119.47998047 C-22.80874109 116.69101861 -22.80874109 116.69101861 -26 116 Z " fill="#256CB3" transform="translate(2344,181)"/>
<path d="M0 0 C1.53881032 1.53881032 1.20691611 2.91189597 1.25 5.0625 C1.18908149 9.45579987 0.56244234 13.44580906 -0.35546875 17.73828125 C-2.68753791 29.41072295 -3.5016973 41.28480345 -4.5625 53.125 C-4.97230092 57.69089969 -5.39157739 62.25578949 -5.81640625 66.8203125 C-5.90604141 67.85471466 -5.99567657 68.88911682 -6.08802795 69.9548645 C-7.11993833 81.03148158 -7.11993833 81.03148158 -10.1875 85.875 C-13.14008335 87.70763794 -15.62576904 87.36152475 -19 87 C-20.66015625 85.9765625 -20.66015625 85.9765625 -22 84 C-22.44025665 81.29431675 -22.73539295 78.72253555 -22.9375 76 C-23.92949231 65.85032975 -25.75655425 55.84259876 -34 49 C-62.37770043 29.32846786 -113.29283633 36.91211098 -146.05157471 36.87751007 C-148.12715961 36.87499739 -150.20273811 36.87103208 -152.27832031 36.86688232 C-156.18816386 36.85991142 -160.09796438 36.86272918 -164.0078125 36.8671875 C-165.20407257 36.86521362 -166.40033264 36.86323975 -167.63284302 36.86120605 C-168.72225189 36.86430786 -169.81166077 36.86740967 -170.93408203 36.87060547 C-171.89218781 36.87140106 -172.85029358 36.87219666 -173.83743286 36.87301636 C-175.97999699 36.75851642 -175.97999699 36.75851642 -177 38 C-177.09883795 39.94664187 -177.12632237 41.89692002 -177.12698364 43.84606934 C-177.12980347 45.1165361 -177.13262329 46.38700287 -177.13552856 47.69596863 C-177.13358397 49.11697402 -177.13153578 50.53797927 -177.12939453 51.95898438 C-177.13074852 53.44517561 -177.13252844 54.93136651 -177.13470459 56.41755676 C-177.13927922 60.46496459 -177.13748924 64.51234704 -177.1343255 68.55975533 C-177.13180205 72.78605342 -177.1341394 77.01234928 -177.13571167 81.23864746 C-177.13753341 88.33732495 -177.13512694 95.43599205 -177.13037109 102.53466797 C-177.12492846 110.75360811 -177.12669112 118.97252345 -177.1321975 127.19146299 C-177.1367285 134.23517937 -177.13737924 141.27888825 -177.13475883 148.32260561 C-177.13319598 152.53515816 -177.13300249 156.74769904 -177.13629532 160.96025085 C-177.13917385 164.91970169 -177.13719868 168.87912039 -177.13140106 172.83856773 C-177.13007337 174.2958998 -177.13046774 175.75323455 -177.13266373 177.21056557 C-177.13537482 179.19168632 -177.13138077 181.17281294 -177.12698364 183.15393066 C-177.12660662 184.26523598 -177.12622959 185.37654129 -177.12584114 186.52152252 C-177.28051558 188.9429314 -177.28051558 188.9429314 -176 190 C-173.49619674 190.10051641 -171.01996648 190.13616521 -168.515625 190.12939453 C-167.33670685 190.13202301 -167.33670685 190.13202301 -166.13397217 190.13470459 C-163.50595958 190.13914089 -160.87801343 190.13617004 -158.25 190.1328125 C-156.40234362 190.13348717 -154.55468733 190.13445855 -152.70703125 190.13571167 C-148.80272592 190.13719271 -144.89844332 190.13502895 -140.99414062 190.13037109 C-136.09408643 190.12479878 -131.19408798 190.12797183 -126.29403591 190.13380241 C-107.98480684 190.15239325 -89.68164187 190.10494958 -71.37890625 189.578125 C-69.41709412 189.52472458 -69.41709412 189.52472458 -67.41564941 189.47024536 C-50.25620815 188.90603224 -34.75942372 187.92891333 -21.80859375 175.86328125 C-18.27991996 173.52228348 -16.15642341 173.50083381 -12 174 C-10 176 -10 176 -9.95751953 178.55786133 C-10.05661621 179.6177124 -10.15571289 180.67756348 -10.2578125 181.76953125 C-10.36770508 182.94596191 -10.47759766 184.12239258 -10.59082031 185.33447266 C-11.10202052 189.91392372 -11.71110337 194.47332091 -12.35791016 199.03540039 C-14.66840682 215.3539649 -15.97080982 231.66178849 -16.96044922 248.11010742 C-17.01597961 248.98788849 -17.07151001 249.86566956 -17.12872314 250.77005005 C-17.23235008 252.41575388 -17.32929356 254.06189828 -17.41815186 255.70846558 C-17.75443056 260.99648771 -18.08292748 266.08292748 -22 270 C-26.33643601 270.31537716 -28.32653229 270.44897847 -32 268 C-32.53662109 265.91210937 -32.53662109 265.91210937 -32.7734375 263.34375 C-32.87301758 262.40789062 -32.97259766 261.47203125 -33.07519531 260.5078125 C-33.17413086 259.51523437 -33.27306641 258.52265625 -33.375 257.5 C-34.5417662 247.71300161 -35.83593143 239.66150026 -43.25 232.625 C-53.71274498 224.6885161 -66.92221833 223.03503208 -79.70239258 222.43774414 C-80.93117111 222.3771272 -80.93117111 222.3771272 -82.18477345 222.31528568 C-91.74858317 221.87457404 -101.31439374 221.77177989 -110.88671875 221.68359375 C-112.81012846 221.66294853 -114.73353441 221.64195056 -116.65693665 221.62062073 C-121.64943338 221.56617931 -126.64196553 221.51643618 -131.63452148 221.46777344 C-136.75702966 221.41697847 -141.87948823 221.36159938 -147.00195312 221.30664062 C-157.00125943 221.20001668 -167.00060933 221.09837105 -177 221 C-177.07027549 239.92460418 -177.12307862 258.84918165 -177.15543652 277.77388954 C-177.17086436 286.56219486 -177.19187521 295.35041881 -177.22631836 304.13867188 C-177.25634637 311.8040874 -177.27560462 319.46944395 -177.28226548 327.13491666 C-177.28615519 331.18867829 -177.29520996 335.2422713 -177.31719017 339.29597855 C-177.33776785 343.12254103 -177.34379154 346.94886771 -177.33932304 350.77548027 C-177.34013885 352.16931254 -177.34597653 353.56315388 -177.35761642 354.95693779 C-177.45655106 367.43038557 -176.86549804 381.91094785 -168.421875 391.859375 C-153.34444416 406.68340365 -126.46845155 405.47297486 -106.8125 405.75 C-104.92040961 405.78414927 -103.02831977 405.81832933 -101.13623047 405.85253906 C-52.98507453 407.90661964 -52.98507453 407.90661964 -10.625 388.78515625 C-2.16337926 379.4895777 1.14848433 367.1375103 3.97265625 355.22265625 C5.39364412 350.76518479 5.39364412 350.76518479 8 349 C13.92960565 348.36468511 13.92960565 348.36468511 16.69140625 350.00390625 C18.79375497 353.2107725 18.48310226 356.60253577 18.4375 360.3125 C18.43137695 361.17552734 18.42525391 362.03855469 18.41894531 362.92773438 C18.03781424 379.80304552 15.15919689 396.75703187 12 413.3125 C11.85852539 414.07498047 11.71705078 414.83746094 11.57128906 415.62304688 C10.23385347 422.1492643 8.26178688 429.33869167 3.1875 433.9375 C-3.03567441 437.96425991 -9.11410359 438.29078661 -16.28857422 438.24291992 C-17.19599869 438.24481827 -18.10342316 438.24671661 -19.03834534 438.24867249 C-22.04388066 438.25237691 -25.04917343 438.24164614 -28.0546875 438.23046875 C-30.19174166 438.22927233 -32.32879635 438.22882476 -34.46585083 438.2290802 C-38.9733607 438.22751376 -43.48079137 438.21923727 -47.98828125 438.20581055 C-53.6047323 438.18924577 -59.22109395 438.18507938 -64.83756638 438.18562126 C-100.58578348 438.18481428 -136.33874789 437.84651779 -172.0625 436.4453125 C-188.29209978 435.81710105 -204.52297867 435.84830808 -220.76220703 435.86962891 C-225.10300802 435.87528981 -229.4437471 435.87196323 -233.7845459 435.86617661 C-253.07104442 435.8445875 -272.33467126 436.03074747 -291.61206055 436.65060425 C-298.47859916 436.87041619 -305.34484509 437.06260889 -312.21484375 437.12451172 C-313.39167725 437.13747284 -314.56851074 437.15043396 -315.78100586 437.16378784 C-320.31467329 436.93310721 -323.83357997 435.75428212 -328 434 C-328.6875 431.6875 -328.6875 431.6875 -329 429 C-327.56553404 426.7686085 -326.49719733 426.13327913 -323.9453125 425.44921875 C-319.96859564 424.84269032 -316.01601243 424.7200687 -312 424.5625 C-295.30545523 424.40526627 -295.30545523 424.40526627 -281 417 C-277.97188377 412.97766174 -276.22027253 409.33845919 -274.875 404.5 C-274.40707031 402.87578125 -274.40707031 402.87578125 -273.9296875 401.21875 C-271.17067972 389.71661844 -270.4675758 377.84529278 -269.8894043 366.07128906 C-269.84743215 365.23597546 -269.80546 364.40066186 -269.76221597 363.54003572 C-268.51633411 337.86820981 -268.72352947 312.15778348 -268.76116087 286.46283291 C-268.77181303 278.99010574 -268.77148632 271.51738866 -268.77100524 264.04465535 C-268.77050948 250.70163419 -268.77953813 237.35863739 -268.79418945 224.015625 C-268.80832401 211.13606321 -268.81535738 198.25652277 -268.81469727 185.37695312 C-268.81465731 184.58033334 -268.81461735 183.78371355 -268.81457619 182.96295378 C-268.81453583 182.1675536 -268.81449548 181.37215342 -268.8144539 180.55265021 C-268.81376134 165.7641325 -268.8196621 150.97562363 -268.82860712 136.1871088 C-268.83159779 131.00329675 -268.83268351 125.81948634 -268.83313942 120.63567352 C-268.83382687 114.31676752 -268.83836583 107.99787652 -268.84747223 101.67897686 C-268.85203323 98.46819248 -268.85461459 95.25743043 -268.85387802 92.0466423 C-266.62739271 58.0082026 -266.62739271 58.0082026 -277.4296875 27.3203125 C-289.1594663 16.03952045 -308.10164692 16.75441227 -323.24267578 16.42895508 C-335.91271099 16.08728901 -335.91271099 16.08728901 -339 13 C-339.25 10.0625 -339.25 10.0625 -339 7 C-332.38841515 2.59227677 -323.3778141 3.9230639 -315.72588253 4.07183743 C-313.56170001 4.11377741 -311.3974939 4.1486557 -309.23316193 4.18195343 C-306.04282556 4.23154479 -302.85254772 4.28375703 -299.66228485 4.33786774 C-290.74585721 4.48732608 -281.82901841 4.60793917 -272.91210938 4.72460938 C-271.96053373 4.73709481 -271.00895808 4.74958024 -270.02854681 4.76244402 C-233.60376125 5.23200063 -197.17473946 5.22403584 -160.74746561 5.23883677 C-149.292545 5.24357018 -137.83773994 5.26137763 -126.38285422 5.2898953 C-117.32528578 5.3116294 -108.26774991 5.32160369 -99.21015573 5.32293582 C-93.88006461 5.32396695 -88.55008648 5.32951397 -83.22002411 5.34775543 C-46.51229916 5.5467234 -46.51229916 5.5467234 -10.2342186 0.39940262 C-6.75870081 -0.22190226 -3.52240631 -0.19213125 0 0 Z " fill="#2763AD" transform="translate(1019,183)"/>
<path d="M0 0 C1.67438954 3.16932042 1.39326941 5.31821998 1.11157227 8.88134766 C1.06571487 9.53889038 1.01985748 10.19643311 0.97261047 10.87390137 C0.87179561 12.30779604 0.7640293 13.74121488 0.650177 15.1741333 C0.3405243 19.08198942 0.08170673 22.99305145 -0.17358398 26.90478516 C-0.22833389 27.73426666 -0.2830838 28.56374817 -0.3394928 29.41836548 C-0.74015162 35.82974332 -0.93285822 42.2322713 -1.04077148 48.65478516 C-1.05723724 49.59659637 -1.073703 50.53840759 -1.09066772 51.50875854 C-1.15205707 55.23140348 -1.20863428 58.95377525 -1.23864746 62.67681885 C-1.25983102 65.2765391 -1.29776873 67.87560723 -1.33764648 70.47509766 C-1.33770187 71.23632935 -1.33775726 71.99756104 -1.33781433 72.78186035 C-1.43273986 77.94244146 -1.92587093 85.45785336 -5.77905273 89.31103516 C-7.73999023 89.58447266 -7.73999023 89.58447266 -10.15405273 89.68603516 C-10.94553711 89.73501953 -11.73702148 89.78400391 -12.55249023 89.83447266 C-14.77905273 89.31103516 -14.77905273 89.31103516 -16.50952148 87.17041016 C-17.88272127 84.07754172 -18.3494651 81.54344344 -18.71655273 78.18603516 C-21.32225488 59.50483189 -31.62427755 44.30421134 -46.51000977 32.99609375 C-50.11547079 30.47677917 -53.88310437 28.34305899 -57.77905273 26.31103516 C-59.14803711 25.59367187 -59.14803711 25.59367187 -60.54467773 24.86181641 C-76.73725946 16.97858583 -94.03454829 14.88529492 -111.84155273 14.93603516 C-112.56349823 14.93657898 -113.28544373 14.9371228 -114.02926636 14.93768311 C-138.3294072 15.0215542 -162.82841018 19.91050604 -181.09155273 37.06103516 C-190.33938845 46.7345649 -195.3835319 58.64740401 -195.27905273 71.99853516 C-195.27260742 72.86921631 -195.26616211 73.73989746 -195.25952148 74.63696289 C-194.89641862 87.6047517 -189.99881062 97.36496974 -181.77905273 107.31103516 C-180.94567383 108.37064453 -180.94567383 108.37064453 -180.09545898 109.45166016 C-175.34869833 115.23428464 -169.65552052 119.72433757 -163.77905273 124.31103516 C-162.76584961 125.11669922 -161.75264648 125.92236328 -160.70874023 126.75244141 C-144.17445997 139.80082547 -126.01937764 150.57957829 -107.98217773 161.39306641 C-82.65061095 176.59616476 -57.9941236 192.74766799 -35.77905273 212.31103516 C-35.26890625 212.75801758 -34.75875977 213.205 -34.2331543 213.66552734 C-8.55791373 236.27992757 11.09468627 264.34397403 14.22094727 299.31103516 C15.94995717 327.74197196 10.23839954 355.19031662 -8.77905273 377.31103516 C-9.45709961 378.11025391 -10.13514648 378.90947266 -10.83374023 379.73291016 C-42.17244964 415.64417147 -89.44514709 430.61502526 -135.77905273 434.31103516 C-148.42626436 435.14081068 -161.10652411 435.58421859 -173.77905273 435.31103516 C-174.70105469 435.29314941 -175.62305664 435.27526367 -176.57299805 435.25683594 C-256.31807333 433.51217364 -256.31807333 433.51217364 -278.77905273 415.31103516 C-281.57657154 410.68734629 -282.16355215 407.21467619 -282.17749023 401.84619141 C-282.18158401 401.11622955 -282.1856778 400.3862677 -282.18989563 399.63418579 C-282.19601957 397.21356768 -282.17683949 394.79404385 -282.15405273 392.37353516 C-282.15039703 391.53754791 -282.14674133 390.70156067 -282.14297485 389.84024048 C-282.06731217 374.86908261 -281.3764464 359.93998545 -280.46655273 344.99853516 C-280.40788025 343.98566437 -280.34920776 342.97279358 -280.28875732 341.92922974 C-280.11600205 339.01763165 -279.92540988 336.10779252 -279.72827148 333.19775391 C-279.65301994 331.91863632 -279.65301994 331.91863632 -279.57624817 330.61367798 C-279.11061666 324.26278881 -278.44229753 316.70440459 -274.39604187 311.5488739 C-271.64457371 309.44256792 -269.09528497 309.95572456 -265.77905273 310.31103516 C-263.67546893 311.85366328 -262.93851115 312.99211833 -261.77905273 315.31103516 C-261.60401762 317.04451544 -261.43314374 318.77854628 -261.28637695 320.51464844 C-259.17734949 344.02052596 -250.41494378 365.75484099 -232.91967773 381.95947266 C-211.24931407 399.83477264 -183.02482067 405.74368646 -155.52905273 405.62353516 C-154.85307037 405.62138 -154.17708801 405.61922485 -153.48062134 405.61700439 C-126.6975433 405.48047884 -100.10693772 399.13145327 -79.50561523 381.08447266 C-68.91397819 370.31074443 -61.93942935 356.96282612 -61.46655273 341.74853516 C-61.94110864 318.46563624 -71.94643292 300.72317985 -87.77905273 284.31103516 C-88.40166992 283.62525391 -89.02428711 282.93947266 -89.66577148 282.23291016 C-105.59723137 265.19161823 -127.64156717 253.20682164 -147.23266602 240.91015625 C-171.43772472 225.70947221 -195.27907527 210.23731268 -216.77905273 191.31103516 C-217.28388184 190.86937012 -217.78871094 190.42770508 -218.30883789 189.97265625 C-242.84302556 168.39989862 -264.62858958 139.96581621 -267.00024414 106.15795898 C-267.48399274 92.39376753 -267.41939082 79.38283723 -262.77905273 66.31103516 C-262.40522461 65.24111328 -262.03139648 64.17119141 -261.64624023 63.06884766 C-252.51890965 39.31360978 -233.62379677 22.2495091 -211.77905273 10.31103516 C-210.09875977 9.38677734 -210.09875977 9.38677734 -208.38452148 8.44384766 C-173.08207708 -10.04986594 -31.50246653 -29.90724077 0 0 Z " fill="#2762AC" transform="translate(2028.779052734375,192.68896484375)"/>
<path d="M0 0 C1.24433485 -0.00724325 1.24433485 -0.00724325 2.51380777 -0.01463282 C5.29773207 -0.02591816 8.08074075 -0.00857395 10.86462402 0.00863647 C12.85870106 0.00649096 14.85277688 0.0026138 16.84684753 -0.00286865 C22.26625073 -0.01257391 27.6853252 0.00275619 33.10468864 0.02303743 C38.77096059 0.04058603 44.43722204 0.03708378 50.10351562 0.03631592 C59.61980703 0.03818984 69.135971 0.055566 78.65222168 0.08285522 C89.66081975 0.11430696 100.6692782 0.12485146 111.67791796 0.12338412 C122.25947543 0.12216408 132.84098734 0.13237017 143.42253113 0.14896774 C147.92962499 0.15603604 152.43670274 0.15969462 156.94380188 0.16075516 C162.24941442 0.16276192 167.55490941 0.17495428 172.86048317 0.19508743 C174.80999342 0.20093693 176.75951719 0.20338827 178.70903587 0.20223236 C181.36563847 0.20125315 184.02191023 0.21254043 186.6784668 0.22705078 C187.84169079 0.22240498 187.84169079 0.22240498 189.02841425 0.21766531 C192.78097337 0.25162398 195.65514709 0.3931556 198.8392334 2.49447632 C198.8392334 4.47447632 198.8392334 6.45447632 198.8392334 8.49447632 C192.40630206 11.91545715 186.28237842 12.1339998 179.0892334 12.49447632 C162.90029871 13.2032257 162.90029871 13.2032257 148.8392334 20.49447632 C134.44177798 37.77142282 139.69193637 72.99092798 139.70983887 93.7383728 C139.70848051 96.41197323 139.70673354 99.08557092 139.70452881 101.75917053 C139.70012219 108.21737765 139.70102498 114.67557304 139.70394145 121.13378059 C139.70621754 126.39618024 139.70649854 131.65857664 139.70541763 136.92097664 C139.70518778 138.05271573 139.70518778 138.05271573 139.70495329 139.20731824 C139.7046335 140.74108608 139.70430928 142.27485393 139.7039807 143.80862177 C139.7011404 158.1364457 139.70438916 172.4642632 139.70978107 186.79208607 C139.71423955 199.01637238 139.71347823 211.24064917 139.7088623 223.4649353 C139.70347653 237.73422608 139.70142351 252.00351123 139.70447457 266.27280289 C139.70479304 267.80307996 139.70510741 269.33335704 139.70541763 270.86363411 C139.70557191 271.61611244 139.70572618 272.36859077 139.70588513 273.14387147 C139.70673897 278.37937252 139.70531203 283.61486992 139.70293808 288.85037041 C139.70009469 295.26094296 139.70097142 301.67150331 139.70621882 308.08207452 C139.70879725 311.336498 139.70939982 314.59089782 139.70656967 317.84532166 C136.2238636 365.93755572 136.2238636 365.93755572 149.3392334 409.55697632 C150.1642334 410.19635132 150.9892334 410.83572632 151.8392334 411.49447632 C152.4682959 411.99721069 153.0973584 412.49994507 153.7454834 413.01791382 C165.92858911 421.60973091 187.6261845 419.73947757 201.79284668 420.0652771 C213.76103691 420.41627983 213.76103691 420.41627983 216.8392334 423.49447632 C217.1517334 425.86947632 217.1517334 425.86947632 216.8392334 428.49447632 C213.46150999 432.1320246 209.3682245 432.38942087 204.58239746 432.58822632 C201.64642369 432.63249279 198.71303313 432.63170908 195.7767334 432.61947632 C194.58032227 432.61754272 193.38391113 432.61560913 192.15124512 432.61361694 C181.7895802 432.57773659 171.43243497 432.35415898 161.07336426 432.13412476 C118.19991439 431.2242797 75.31116937 430.94137215 32.4420166 432.20880127 C24.84765578 432.42736339 17.25289966 432.58378314 9.65563965 432.65072632 C8.79405746 432.66559082 7.93247528 432.68045532 7.04478455 432.69577026 C1.63323559 432.72090964 -2.98886358 432.13705805 -8.1607666 430.49447632 C-10.1607666 428.49447632 -10.1607666 428.49447632 -10.4107666 425.99447632 C-10.1607666 423.49447632 -10.1607666 423.49447632 -8.1607666 421.49447632 C-4.00442028 420.5202338 0.11543002 420.35038872 4.36218262 420.20394897 C21.34417175 419.67929615 21.34417175 419.67929615 36.8392334 413.49447632 C37.4992334 413.49447632 38.1592334 413.49447632 38.8392334 413.49447632 C43.07177704 405.17987949 45.25737406 397.15507874 46.5267334 387.93197632 C46.70546997 386.65024536 46.70546997 386.65024536 46.88781738 385.34262085 C49.12316404 367.7277664 49.1091112 349.8676135 49.36419916 332.14231157 C49.39449941 330.04028066 49.42590594 327.93826801 49.45736313 325.83625412 C50.02581136 287.25077792 49.99114229 248.66242658 49.96780276 210.07366538 C49.96402334 203.10048678 49.96540441 196.12732238 49.96960449 189.15414429 C49.99163614 151.37842092 50.00699909 113.60288914 49.4564209 75.83041382 C49.44127567 74.61599232 49.42613045 73.40157082 49.41052628 72.15034866 C50.11624988 45.62024385 50.11624988 45.62024385 40.7142334 21.68197632 C29.24150802 12.95272875 16.79648395 12.30576674 2.86901855 11.92318726 C-1.79297788 11.76416209 -5.84318029 11.46318706 -10.1607666 9.49447632 C-11.5357666 6.86947632 -11.5357666 6.86947632 -12.1607666 4.49447632 C-8.72233669 -0.04969392 -5.33481795 -0.07076876 0 0 Z " fill="#2763AD" transform="translate(2654.1607666015625,187.50552368164063)"/>
<path d="M0 0 C0.67125916 0.00215515 1.34251831 0.0043103 2.03411865 0.00653076 C49.10230546 0.24743477 90.37079314 19.96417261 123.359375 52.8515625 C154.66787842 85.85511229 168.97477038 129.58414569 168.09375 174.50390625 C166.65963096 217.29443305 148.22743131 255.76622518 118.8125 286.3125 C118.235 286.9415625 117.6575 287.570625 117.0625 288.21875 C91.69880282 315.10426901 50.78281794 332.9216141 13.99291992 334.47363281 C-21.74638526 334.85357969 -21.74638526 334.85357969 -36.1875 331.3125 C-37.43345947 331.01448486 -37.43345947 331.01448486 -38.70458984 330.71044922 C-81.93713401 320.07949573 -119.81491028 292.92836526 -143.2487793 254.97583008 C-166.04027379 216.70835493 -173.66790452 170.36412255 -162.8984375 126.94921875 C-156.88947307 104.14237366 -147.19318109 82.63890586 -132.1875 64.3125 C-131.7529248 63.77786133 -131.31834961 63.24322266 -130.87060547 62.69238281 C-117.48444926 46.2866141 -102.39875862 33.12606088 -84.1875 22.3125 C-83.31254883 21.79260498 -83.31254883 21.79260498 -82.41992188 21.26220703 C-69.10232165 13.48142468 -54.85074393 8.32091521 -39.9375 4.5 C-39.18315674 4.30510986 -38.42881348 4.11021973 -37.65161133 3.90942383 C-25.23858955 0.90962125 -12.73980368 -0.05636369 0 0 Z M-76.1875 30.3125 C-76.84991699 30.68358887 -77.51233398 31.05467773 -78.19482422 31.43701172 C-93.9921808 40.45261696 -108.42845873 52.49508168 -119.5625 66.9375 C-120.03163818 67.54376221 -120.50077637 68.15002441 -120.98413086 68.7746582 C-122.39559293 70.6130248 -123.79421317 72.46033115 -125.1875 74.3125 C-125.96480469 75.34503906 -126.74210937 76.37757813 -127.54296875 77.44140625 C-152.21647756 111.63495916 -160.32884086 152.34260956 -153.81298828 193.68896484 C-148.36648886 225.5163269 -133.93635725 253.79843522 -111.52587891 276.92724609 C-110.37178424 278.12176144 -109.23673142 279.33462082 -108.10546875 280.55078125 C-98.33509718 290.8148137 -86.48689937 298.45038504 -74.1875 305.3125 C-73.09050781 305.92996094 -71.99351562 306.54742188 -70.86328125 307.18359375 C-33.61560556 326.97555397 9.12155847 328.51629701 48.96435547 316.67285156 C88.45328238 304.16208097 120.3180565 274.9192917 139.5625 238.7421875 C147.95697377 222.47789457 154.15135836 203.585058 155.8125 185.3125 C155.87808105 184.61431152 155.94366211 183.91612305 156.01123047 183.19677734 C159.79376547 140.28269321 146.9225157 99.24988786 119.60180664 66.12158203 C92.94211265 34.37661929 55.91794296 15.813568 14.98046875 10.84765625 C11.92050581 10.58267725 8.88192093 10.41055095 5.8125 10.3125 C4.966875 10.27253906 4.12125 10.23257813 3.25 10.19140625 C-24.16896725 9.48085375 -52.35493766 16.95942038 -76.1875 30.3125 Z " fill="#823177" transform="translate(400.1875,235.6875)"/>
<path d="M0 0 C30.29518382 25.92606463 48.42041626 62.87723452 52.25 102.4375 C54.11283454 131.36091026 49.05376706 159.38845668 36.25 185.4375 C35.70601562 186.55382812 35.16203125 187.67015625 34.6015625 188.8203125 C16.7279123 223.64456054 -15.28213995 251.04704589 -52.47460938 263.33789062 C-55.30605141 264.20593825 -58.14542082 265.02399392 -61 265.8125 C-61.86173828 266.0511377 -62.72347656 266.28977539 -63.61132812 266.53564453 C-75.95541126 269.75189679 -88.20911715 270.80578081 -100.9375 270.75 C-101.61253571 270.74784485 -102.28757141 270.7456897 -102.98306274 270.74346924 C-146.73374529 270.52039292 -183.73192365 252.3709296 -214.3359375 221.859375 C-243.51052396 191.12022081 -255.63880089 150.76213894 -254.99609375 109.13671875 C-253.80571833 67.31960015 -234.32600421 31.09923325 -205.328125 2.0078125 C-148.20514557 -51.85647347 -58.4895449 -49.15956618 0 0 Z M-209.5546875 22.4296875 C-234.4187889 51.01178537 -246.82583654 88.76690985 -244.5 126.46484375 C-241.71239966 160.55350894 -227.42448331 190.13782112 -204.75 215.4375 C-203.69232422 216.62279297 -203.69232422 216.62279297 -202.61328125 217.83203125 C-178.27347231 243.56268642 -141.73458017 258.54772505 -106.62890625 259.640625 C-70.34614712 260.17260046 -36.4936109 249.18492854 -8.75 225.4375 C-7.93015625 224.74011719 -7.1103125 224.04273438 -6.265625 223.32421875 C19.63852609 200.67819846 37.75135361 167.93681064 41.25 133.4375 C41.38277344 132.13425781 41.51554687 130.83101562 41.65234375 129.48828125 C44.68022742 94.1483827 34.59246836 57.2234061 12.25 29.4375 C11.84555664 28.92767578 11.44111328 28.41785156 11.02441406 27.89257812 C-13.21238715 -2.49004852 -47.20676192 -20.73091582 -85.65234375 -25.95703125 C-132.66685286 -31.13484062 -177.84089468 -11.94797206 -209.5546875 22.4296875 Z " fill="#823177" transform="translate(501.75,286.5625)"/>
<path d="M0 0 C7.29593424 4.17585869 11.21158203 9.57869953 13.55859375 17.59765625 C14.45692496 26.35638554 13.25906301 33.38802176 7.68359375 40.34765625 C1.8109597 46.46447467 -3.8453977 48.24768587 -12.25390625 48.53515625 C-20.59971244 48.24798873 -25.28610133 46.31139048 -31.00390625 40.28515625 C-35.98028946 34.12716607 -37.76343077 28.39586496 -37.47265625 20.484375 C-36.65711649 13.38238293 -33.58205815 7.7306078 -28.19140625 3.03515625 C-19.7739093 -2.90660631 -9.54610495 -4.26696999 0 0 Z M-26.25 4.84375 C-30.41872354 9.42847922 -32.92473156 13.15506957 -33.50390625 19.41015625 C-32.96776697 25.62937192 -30.5304136 30.57217727 -26.19140625 35.03515625 C-23.24068781 36.96985474 -23.24068781 36.96985474 -20.19140625 38.03515625 C-18.70640625 37.54015625 -18.70640625 37.54015625 -17.19140625 37.03515625 C-18.15046875 36.10703125 -18.15046875 36.10703125 -19.12890625 35.16015625 C-22.55619972 31.6290054 -22.47111068 29.03217532 -22.41015625 24.29296875 C-22.11030492 21.1980747 -21.19453116 19.39598203 -19.19140625 17.03515625 C-16.14638474 15.15265922 -13.81055943 14.76323543 -10.25390625 14.78515625 C-9.41988281 14.78 -8.58585937 14.77484375 -7.7265625 14.76953125 C-4.77120408 15.0791836 -2.77147083 15.53450645 -0.19140625 17.03515625 C0.953125 19.63671875 0.953125 19.63671875 1.62109375 22.66015625 C1.97107422 24.16449219 1.97107422 24.16449219 2.328125 25.69921875 C2.48667969 26.47007812 2.64523437 27.2409375 2.80859375 28.03515625 C5.25505184 25.58869816 5.49912011 23.63432805 5.8359375 20.25390625 C5.75479774 13.66999453 2.31979654 8.54635904 -2.19140625 4.03515625 C-10.05213521 -0.9205207 -19.04669972 -1.48476619 -26.25 4.84375 Z " fill="#F3CD4D" transform="translate(370.19140625,313.96484375)"/>
<path d="M0 0 C6.588091 4.44168847 10.56230107 9.50744855 12.52734375 17.26171875 C13.68142567 24.79072937 12.545917 31.44256738 8.5234375 37.9296875 C4.564553 42.94167428 -0.75623978 46.72475765 -7.0625 47.9375 C-15.53689621 48.83667285 -22.01596262 47.89896571 -29.0625 42.9375 C-34.79472217 38.05359824 -37.33055213 32.07920784 -38.37890625 24.71484375 C-38.77125129 17.53872636 -36.78795724 10.98330016 -31.96875 5.59765625 C-23.28918648 -2.40200813 -11.07934959 -5.73785737 0 0 Z M-28.12109375 10.7109375 C-32.11270955 15.04279498 -34.95092972 18.95816 -35.12109375 25.02734375 C-34.81009641 30.89616453 -33.15625578 35.64791535 -29.0625 39.9375 C-23.80074415 43.60559376 -18.55019676 46.01878279 -12.0625 44.9375 C-6.03830999 42.93336634 -1.23636747 39.50220843 1.9375 33.9375 C2.94158746 30.63076967 3.53729849 27.36681291 3.9375 23.9375 C3.36 24.700625 2.7825 25.46375 2.1875 26.25 C-1.53811138 30.70003581 -4.05856335 32.45855606 -10.03515625 33.00390625 C-14.17194573 32.86840448 -16.97686608 30.98569827 -19.875 28.1875 C-22.28243965 23.6260354 -22.40869335 20.09147783 -20.9375 15.1875 C-18.91669542 11.68477206 -17.67081068 10.60964397 -14.0625 8.9375 C-13.299375 8.545625 -12.53625 8.15375 -11.75 7.75 C-11.193125 7.481875 -10.63625 7.21375 -10.0625 6.9375 C-16.83644054 5.35210966 -22.69300268 6.03474519 -28.12109375 10.7109375 Z " fill="#1989C9" transform="translate(371.0625,447.0625)"/>
<path d="M0 0 C5.83031754 5.30669662 9.40898551 10.09769032 10.37109375 18.078125 C10.53258928 25.79191162 9.72073713 31.72459704 5 38 C-0.7917424 43.6165889 -6.58520537 46.28325699 -14.6875 46.4375 C-22.42067973 46.2998413 -28.39547136 44.7246796 -33.875 39.0625 C-40.1043969 31.15595778 -40.8676458 23.92722012 -40 14 C-38.27128166 6.84148179 -32.74020464 2.2317558 -27 -2 C-18.9160641 -6.31143248 -7.4377805 -5.17470814 0 0 Z M-26.01953125 2.87890625 C-30.37592035 7.69666446 -32.1431859 10.90606216 -32.1875 17.5 C-32.20167969 18.4590625 -32.21585937 19.418125 -32.23046875 20.40625 C-32.18755111 23.23746139 -32.18755111 23.23746139 -30 26 C-29.773125 24.783125 -29.54625 23.56625 -29.3125 22.3125 C-28.1874986 17.96660419 -26.76585875 15.64411359 -23 13 C-18.54301499 11.67606165 -15.05867254 11.6667142 -10.625 13.0625 C-7.38456815 15.45424732 -6.31526138 17.20035601 -5 21 C-4.46523616 26.08025648 -5.01685758 28.86949511 -8 33 C-8.66 33.99 -9.32 34.98 -10 36 C-5.44874062 35.46455772 -2.58570594 33.82278978 1 31 C5.43038332 25.2524757 6.48889778 21.21124231 6 14 C3.94790881 7.73572162 0.8829071 4.24226108 -4.25 0.25 C-11.81962382 -3.1907381 -19.78341593 -2.9229728 -26.01953125 2.87890625 Z " fill="#F4A13C" transform="translate(448,316)"/>
<path d="M0 0 C6.2875215 3.64014403 10.27369254 9.1305378 12.5 16 C13.30544924 23.83908159 13.64495998 31.63396952 8.5 38 C2.08980208 44.81159551 -2.90633676 47.97120006 -12.3125 48.375 C-20.12860808 48.21055218 -25.64547841 45.99837179 -31.375 40.6875 C-37.36742847 34.06941195 -38.13053313 28.30548653 -37.90625 19.51171875 C-37.18601561 13.2858465 -35.08691554 8.50346665 -30.5625 4.125 C-21.70120281 -2.85662809 -10.53844547 -4.74949667 0 0 Z M-10.5 7 C-9.736875 7.556875 -8.97375 8.11375 -8.1875 8.6875 C-4.32267709 12.01304529 -2.68322108 14.32047344 -2.125 19.4375 C-2.54352122 23.41345159 -3.24811385 25.69723365 -5.5 29 C-9.02724953 31.60344608 -11.77695969 32.23531253 -16.0625 32 C-20.57627834 31.29329733 -22.7546019 29.74372468 -25.5 26 C-26.8125 22.6875 -26.8125 22.6875 -27.5 20 C-29.80652805 23.25627489 -29.6628909 26.05243975 -29.03125 29.9140625 C-27.47847893 36.01097245 -24.33478912 39.58996366 -19.18359375 43.0546875 C-14.78973251 45.52177432 -10.39082272 45.54783566 -5.5 45 C0.20482136 43.37743305 4.05225426 40.14105728 7.3671875 35.27734375 C10.04289443 29.89825017 10.07723022 24.92410073 8.375 19.25 C4.71989726 12.91448858 1.59400751 9.2802167 -5.5 7 C-8.29340157 6.74609778 -8.29340157 6.74609778 -10.5 7 Z " fill="#1E58A2" transform="translate(445.5,447)"/>
<path d="M0 0 C6.37077944 4.48566467 9.6113769 9.94566098 11.19140625 17.54296875 C12.14428542 24.43810833 10.54976796 30.93192711 6.75 36.75 C2.72833477 41.77941429 -1.48901571 45.05600921 -7.80859375 46.54296875 C-15.70031935 47.41178258 -23.36290287 47.67350745 -29.80859375 42.54296875 C-35.79725473 37.17257034 -38.99756213 31.48291862 -40.0859375 23.51171875 C-40.42919068 16.59173468 -38.38026822 10.13833947 -34.05859375 4.73046875 C-25.10747823 -4.86637401 -11.28977478 -6.4694215 0 0 Z M-21.80859375 6.54296875 C-22.13859375 7.20296875 -22.46859375 7.86296875 -22.80859375 8.54296875 C-21.83019531 8.56423828 -21.83019531 8.56423828 -20.83203125 8.5859375 C-14.43730241 8.93491238 -11.20356544 9.80992232 -6.80859375 14.54296875 C-5.30208599 19.06249202 -5.06295456 22.90256253 -7.05859375 27.29296875 C-8.87216539 29.62470371 -10.29396577 31.00259454 -12.80859375 32.54296875 C-15.5 32.8359375 -15.5 32.8359375 -18.37109375 32.73046875 C-19.32113281 32.70339844 -20.27117187 32.67632812 -21.25 32.6484375 C-22.09433594 32.61363281 -22.93867188 32.57882812 -23.80859375 32.54296875 C-24.79859375 32.54296875 -25.78859375 32.54296875 -26.80859375 32.54296875 C-25.54287142 33.69444536 -24.27081469 34.83896189 -22.99609375 35.98046875 C-21.93455078 36.93759766 -21.93455078 36.93759766 -20.8515625 37.9140625 C-16.21315959 41.61236845 -10.44883074 40.97246956 -4.80859375 40.54296875 C0.6976758 38.77680682 3.96126891 35.19316647 7.19140625 30.54296875 C9.7149329 25.49591546 9.46771168 20.92034383 8.19140625 15.54296875 C6.12581103 9.9187122 2.45024315 6.33384272 -2.80859375 3.54296875 C-9.91294368 1.38137391 -15.71002515 2.46733998 -21.80859375 6.54296875 Z " fill="#ED3A26" transform="translate(489.80859375,381.45703125)"/>
<path d="M0 0 C5.45580683 3.91046603 10.09153447 8.86002904 11.26171875 15.62109375 C12.06358983 24.49258809 11.28942103 31.50670941 5.68359375 38.625 C-0.10302495 44.86777108 -5.15454928 46.76670734 -13.55078125 47.12109375 C-21.20825925 46.92579144 -27.19049957 45.28713482 -32.61328125 39.68359375 C-38.83497055 31.78683425 -39.6266887 24.53976931 -38.73828125 14.62109375 C-36.92746105 7.83322881 -31.87209908 2.13888344 -25.9296875 -1.48046875 C-17.44080545 -5.25722709 -7.97592606 -4.53381948 0 0 Z M-34.3203125 12.68359375 C-37.59432563 17.15717643 -37.17021229 22.32163209 -36.73828125 27.62109375 C-34.90790215 33.45542714 -30.56485694 37.08874097 -25.73828125 40.62109375 C-20.71785596 42.29456885 -15.35289144 42.75730858 -10.41015625 40.609375 C-7.13675954 38.59078036 -4.40046658 36.39725644 -1.73828125 33.62109375 C-2.23328125 32.63109375 -2.23328125 32.63109375 -2.73828125 31.62109375 C-3.25390625 31.95109375 -3.76953125 32.28109375 -4.30078125 32.62109375 C-7.67671199 34.00609098 -10.11243241 33.99618156 -13.73828125 33.62109375 C-17.44218146 31.59443137 -19.39191136 30.14064859 -21.73828125 26.62109375 C-22.33483345 22.05010938 -22.26713866 17.89035153 -20.48828125 13.62109375 C-17.49092324 10.19554174 -14.43195948 9.38818301 -9.98828125 8.99609375 C-9.1890625 8.92132813 -8.38984375 8.8465625 -7.56640625 8.76953125 C-6.66148437 8.69605469 -6.66148437 8.69605469 -5.73828125 8.62109375 C-8.69287316 5.46273688 -10.56851527 3.81528967 -15.0078125 3.41796875 C-24.15313616 3.24939136 -28.42311454 5.81003851 -34.3203125 12.68359375 Z " fill="#2BAB4F" transform="translate(336.73828125,381.37890625)"/>
<path d="M0 0 C5.79493826 4.15353951 9.41075454 8.70795767 11.26171875 15.62109375 C12.29787455 24.21573346 11.55825065 31.58027129 6.26171875 38.62109375 C0.46997635 44.23768265 -5.32348662 46.90435074 -13.42578125 47.05859375 C-21.15896098 46.92093505 -27.13375261 45.34577335 -32.61328125 39.68359375 C-38.83497055 31.78683425 -39.6266887 24.53976931 -38.73828125 14.62109375 C-36.92746105 7.83322881 -31.87209908 2.13888344 -25.9296875 -1.48046875 C-17.44080545 -5.25722709 -7.97592606 -4.53381948 0 0 Z M-29.05078125 4.87109375 C-32.37001537 10.28021601 -34.53740719 15.08672747 -33.390625 21.59375 C-32.19244955 25.31742101 -30.17569716 28.57622216 -27.73828125 31.62109375 C-27.07828125 31.95109375 -26.41828125 32.28109375 -25.73828125 32.62109375 C-25.79628906 31.82445312 -25.85429687 31.0278125 -25.9140625 30.20703125 C-26.32853828 20.4727715 -26.32853828 20.4727715 -23.36328125 16.93359375 C-19.42890483 13.46759547 -17.07877153 13.32850964 -11.9921875 13.41015625 C-8.82404226 13.70665511 -7.12266002 14.51723013 -4.73828125 16.62109375 C-1.34958831 21.52885594 -1.39433578 25.88866933 -1.73828125 31.62109375 C2.88756264 27.36044807 4.99202157 24.53382332 5.57421875 18.24609375 C4.98361659 11.39510865 2.08145338 6.44082838 -2.73828125 1.62109375 C-11.96416079 -3.70152906 -21.45926421 -2.51524715 -29.05078125 4.87109375 Z " fill="#59358E" transform="translate(411.73828125,381.37890625)"/>
<path d="M0 0 C-0.33 1.98 -0.66 3.96 -1 6 C-1.56847656 6.12375 -2.13695312 6.2475 -2.72265625 6.375 C-9.42014023 8.16397736 -13.12264893 11.27629127 -17 17 C-18.78793044 22.36379133 -18.69055197 27.88772338 -16.9375 33.25 C-12.36065603 39.74616563 -7.7920571 42.63297244 0 44 C-0.33 45.65 -0.66 47.3 -1 49 C-9.14637924 46.77332301 -14.53030927 43.96546465 -18.875 36.5625 C-22.07339658 29.63781615 -22.34628901 21.91791455 -20.3359375 14.57421875 C-17.42992112 8.06726903 -12.31672305 2.65890798 -5.6875 0 C-2 -1 -2 -1 0 0 Z " fill="#8AC542" transform="translate(319,379)"/>
<path d="M0 0 C4.41477273 2.54442815 7.95720163 5.32846575 10.25390625 9.921875 C10.43953125 10.623125 10.62515625 11.324375 10.81640625 12.046875 C8.50640625 12.376875 6.19640625 12.706875 3.81640625 13.046875 C3.45289063 12.50417969 3.089375 11.96148437 2.71484375 11.40234375 C-1.34921383 5.6188772 -4.5440832 3.00825514 -11.49609375 1.171875 C-17.00861087 0.98501001 -21.8613022 1.90740215 -26.01953125 5.73828125 C-27.49218239 7.4587688 -28.84312782 9.22296235 -30.18359375 11.046875 C-30.84359375 11.706875 -31.50359375 12.366875 -32.18359375 13.046875 C-32.84359375 12.716875 -33.50359375 12.386875 -34.18359375 12.046875 C-32.47888086 5.60684854 -27.4742977 2.39434791 -21.99609375 -0.828125 C-14.79916117 -2.95181002 -6.95496262 -3.07818805 0 0 Z " fill="#F7EE22" transform="translate(370.18359375,313.953125)"/>
<path d="M0 0 C9.24 0 18.48 0 28 0 C21.33665784 4.99750662 15.1006058 4.54610826 7 4 C4.31070196 3.27041126 2.43171717 2.38955267 0 1 C0 0.67 0 0.34 0 0 Z " fill="#E85934" transform="translate(419,358)"/>
<path d="M0 0 C0.33 0 0.66 0 1 0 C1 6.27 1 12.54 1 19 C-3 15 -3 15 -3.49609375 12.59765625 C-3.29635499 3.95562599 -3.29635499 3.95562599 0 0 Z " fill="#65B849" transform="translate(317,393)"/>
<path d="M0 0 C0.66 0.33 1.32 0.66 2 1 C1.67 2.98 1.34 4.96 1 7 C-1.64 7.33 -4.28 7.66 -7 8 C-6.875 5.6875 -6.875 5.6875 -6 3 C-3.0625 1.125 -3.0625 1.125 0 0 Z " fill="#6DBA48" transform="translate(317,378)"/>
<path d="M0 0 C2.97 0.33 5.94 0.66 9 1 C8.67 2.65 8.34 4.3 8 6 C5.69 5.34 3.38 4.68 1 4 C0.67 2.68 0.34 1.36 0 0 Z " fill="#6DBA48" transform="translate(310,422)"/>
</svg>
