<?xml version="1.0" encoding="UTF-8"?>
<svg version="1.1" xmlns="http://www.w3.org/2000/svg" width="504" height="520">
<path d="M0 0 C7.94594566 5.85031164 12.1810258 13.3403144 14.48828125 22.83203125 C17.56848902 23.53407163 20.65279861 24.21608333 23.73828125 24.89453125 C24.61097656 25.09369141 25.48367188 25.29285156 26.3828125 25.49804688 C27.22714844 25.68173828 28.07148438 25.86542969 28.94140625 26.0546875 C29.71645508 26.22750244 30.49150391 26.40031738 31.29003906 26.57836914 C34.73397938 26.97577629 36.78715628 26.34601384 39.56640625 24.30859375 C40.283125 23.69757812 40.99984375 23.0865625 41.73828125 22.45703125 C50.74384349 15.3718797 59.3007753 14.8494958 70.48828125 15.83203125 C78.87251045 17.68052273 85.4484274 22.34655802 90.24609375 29.42578125 C93.49674446 35.26753036 94.6459992 39.7198984 94.86328125 46.39453125 C95.32681346 51.38522803 96.22800429 54.00743188 99.94921875 57.265625 C107.14107954 62.92572195 107.14107954 62.92572195 115.74609375 64.68359375 C116.65101563 64.40257813 117.5559375 64.1215625 118.48828125 63.83203125 C119.19210937 63.64382812 119.8959375 63.455625 120.62109375 63.26171875 C121.60722656 62.98714844 121.60722656 62.98714844 122.61328125 62.70703125 C130.61046853 60.91339565 140.33571773 61.56558985 147.48828125 65.83203125 C155.05547392 71.45204183 161.73460362 78.2475753 163.48828125 87.83203125 C163.97050262 95.27864196 164.02055737 102.09878861 161.14453125 109.0625 C160.31442186 110.98628053 160.31442186 110.98628053 160.48828125 113.83203125 C161.36690931 115.54675226 161.36690931 115.54675226 162.60546875 117.265625 C163.04761719 117.91466797 163.48976563 118.56371094 163.9453125 119.23242188 C164.41324219 119.90466797 164.88117188 120.57691406 165.36328125 121.26953125 C166.27943011 122.6001284 167.19355754 123.93212005 168.10546875 125.265625 C168.51394043 125.85400146 168.92241211 126.44237793 169.34326172 127.04858398 C170.48828125 128.83203125 170.48828125 128.83203125 171.42382812 130.98681641 C172.44852192 133.24144617 172.44852192 133.24144617 175.90234375 133.921875 C177.30371501 134.21550043 178.70756201 134.49748211 180.11328125 134.76953125 C191.06282666 137.22929959 197.78003356 141.60077005 204.48828125 150.83203125 C209.76381263 159.33808466 210.03640857 170.22204945 207.79296875 179.80078125 C206.20147569 184.13392203 204.15685316 187.32979292 201.17578125 190.83203125 C198.71571193 193.92415868 198.12166823 195.69878092 198.48828125 199.64453125 C198.80846309 201.37618135 199.14243129 203.10532448 199.48828125 204.83203125 C199.56046875 205.77949219 199.63265625 206.72695312 199.70703125 207.703125 C200.23107424 213.25104337 200.23107424 213.25104337 203.375 217.6484375 C205.69530397 219.15722599 208.06136633 220.50281634 210.48828125 221.83203125 C217.72812403 226.57587984 221.51304172 233.69213006 224.13671875 241.84765625 C225.82764466 251.39199361 224.37880122 260.56715559 219.73828125 269.01953125 C215.01864051 274.91908217 210.34187868 279.53703249 203.48828125 282.83203125 C202.49828125 282.83203125 201.50828125 282.83203125 200.48828125 282.83203125 C200.42769531 283.47269531 200.36710937 284.11335938 200.3046875 284.7734375 C200.17900391 286.07087891 200.17900391 286.07087891 200.05078125 287.39453125 C199.96957031 288.31234375 199.88835937 289.23015625 199.8046875 290.17578125 C199.48828125 292.83203125 199.48828125 292.83203125 198.48828125 296.39453125 C198.48828125 301.17594742 200.71107246 303.0413914 203.6953125 306.609375 C209.93086666 314.33928855 209.44253199 324.35298388 208.48828125 333.83203125 C206.70524292 342.87797902 200.57409125 350.37950205 193.03125 355.5 C188.76813012 357.78932894 185.09589379 358.96010145 180.30078125 359.51953125 C175.95237305 360.26011952 174.35079334 361.62676874 171.80078125 365.20703125 C170.68204929 367.07337736 169.57871595 368.94901208 168.48828125 370.83203125 C167.43640625 372.30542969 167.43640625 372.30542969 166.36328125 373.80859375 C162.47687118 379.09060553 162.47687118 379.09060553 161.94140625 385.2890625 C162.70063575 386.90108851 163.50263421 388.49346712 164.33984375 390.06640625 C167.39721037 397.42904424 166.48274756 407.50057761 163.52734375 414.84765625 C158.90638515 423.67264486 151.92258547 430.70343185 142.48828125 434.140625 C134.26213229 436.03649527 125.56524533 435.82731489 117.67578125 432.83203125 C114.10017687 431.66349789 113.01124144 431.57265987 109.58203125 433.2734375 C106.64769291 435.35776831 106.64769291 435.35776831 103.9453125 437.73046875 C101.48828125 439.83203125 101.48828125 439.83203125 97.86328125 441.51953125 C94.28868414 445.00006001 94.91284112 448.55341114 94.734375 453.3828125 C94.12029443 461.98968785 90.69662133 468.69389098 84.78125 474.88671875 C76.43154238 481.97045707 67.10548127 483.66812262 56.44970703 483.05419922 C49.42155645 482.25813038 43.4472369 479.27655187 38.86328125 473.95703125 C36.93838723 471.81826012 36.10548231 470.92172829 33.23046875 470.50390625 C30.56137639 470.72144983 28.09573283 471.22450635 25.48828125 471.83203125 C24.50472656 471.96738281 23.52117187 472.10273438 22.5078125 472.2421875 C19.4991516 472.77873865 17.16361805 473.3472653 14.48828125 474.83203125 C13.16522849 477.25762797 12.68064857 479.43283573 12.13671875 482.13671875 C10.42538964 489.25007467 5.47890228 494.35476502 -0.2890625 498.54296875 C-9.05424555 503.62646683 -17.556377 504.18292321 -27.51171875 502.83203125 C-35.62620978 500.42414424 -41.89627669 495.93568649 -46.51171875 488.83203125 C-48.79355389 484.58333821 -50.34175636 480.5118808 -51.51171875 475.83203125 C-59.10171875 474.18203125 -66.69171875 472.53203125 -74.51171875 470.83203125 C-75.17171875 472.15203125 -75.83171875 473.47203125 -76.51171875 474.83203125 C-82.52348906 482.24113195 -90.11638051 486.38796598 -99.51171875 487.83203125 C-109.06810582 488.82062302 -117.62280744 486.19441208 -125.40625 480.62890625 C-131.05457997 475.80843911 -136.25497557 469.30394071 -137.51171875 461.83203125 C-137.4427756 459.79212498 -137.37365122 457.75222392 -137.30224609 455.71240234 C-137.07005012 448.95748281 -137.07005012 448.95748281 -139.9375 443.06445312 C-143.87335447 439.57020324 -148.48663351 436.48778272 -153.51171875 434.83203125 C-156.16188284 434.86806407 -156.16188284 434.86806407 -158.51171875 435.83203125 C-159.37410156 436.08082031 -160.23648438 436.32960938 -161.125 436.5859375 C-162.46111328 436.98619141 -162.46111328 436.98619141 -163.82421875 437.39453125 C-173.65704217 440.0798003 -182.68963288 439.19570943 -191.63671875 434.20703125 C-200.43057431 428.56749345 -205.22298009 421.27043188 -208.26171875 411.39453125 C-208.96912258 404.14364202 -208.63800239 398.09001 -206.265625 391.15625 C-204.5563006 386.19334226 -204.5563006 386.19334226 -205.48828125 381.15625 C-207.30401748 378.25193257 -208.88463605 376.04743863 -211.51171875 373.83203125 C-214.89364668 373.22670563 -217.81030223 373.39344602 -221.23046875 373.66015625 C-229.07269292 374.07093942 -236.47317221 370.68226944 -242.51171875 365.83203125 C-249.80370321 359.20781094 -253.80904856 352.25121625 -254.88671875 342.40625 C-255.19749956 333.51986115 -254.36449335 325.09620382 -248.20703125 318.28125 C-247.37945312 317.45238281 -246.551875 316.62351562 -245.69921875 315.76953125 C-242.53628311 312.57104767 -242.53628311 312.57104767 -241.046875 308.4765625 C-241.28568985 305.81486244 -241.82844158 303.41691578 -242.51171875 300.83203125 C-243.03615092 298.35362337 -243.556832 295.87441949 -244.07421875 293.39453125 C-244.34363281 292.22019531 -244.61304688 291.04585938 -244.890625 289.8359375 C-245.51171875 286.83203125 -245.51171875 286.83203125 -245.51171875 283.83203125 C-246.71828125 283.52265625 -246.71828125 283.52265625 -247.94921875 283.20703125 C-256.24007869 280.00705022 -264.33362151 274.26535956 -268.35668945 266.12158203 C-270.55587619 260.88032831 -271.02089998 256.10278108 -270.94921875 250.45703125 C-270.94164551 249.62139648 -270.93407227 248.78576172 -270.92626953 247.92480469 C-270.69015566 239.07656648 -268.4698679 232.00337715 -262.3515625 225.43359375 C-257.40990973 221.13194272 -252.02895927 217.83110912 -245.51171875 216.83203125 C-245.45113281 216.13078125 -245.39054687 215.42953125 -245.328125 214.70703125 C-245.20244141 213.28390625 -245.20244141 213.28390625 -245.07421875 211.83203125 C-244.99558594 210.81882813 -244.91695312 209.805625 -244.8359375 208.76171875 C-244.51171875 205.83203125 -244.51171875 205.83203125 -243.90625 203.77734375 C-243.25548541 201.4972212 -243.0868718 200.1913755 -243.51171875 197.83203125 C-245.22706336 194.92418192 -247.02472832 192.24336181 -249.08349609 189.57470703 C-255.28463439 181.53071953 -255.65733711 172.6403421 -254.51171875 162.83203125 C-252.257791 153.72196978 -247.26773377 146.10222027 -239.7109375 140.49609375 C-234.45322329 137.50133576 -228.59718528 136.75912919 -222.68359375 135.8359375 C-218.69965153 134.57500997 -217.81909422 133.28153446 -215.51171875 129.83203125 C-214.54478707 128.54648654 -213.57729337 127.26136446 -212.609375 125.9765625 C-206.85641328 118.5440956 -206.85641328 118.5440956 -204.4296875 109.8125 C-205.26017779 107.3366252 -206.3139852 105.14875462 -207.51171875 102.83203125 C-209.61617564 94.12234469 -208.22301812 85.40545842 -203.94921875 77.58203125 C-198.30920399 68.95047581 -190.69643791 64.75963883 -180.94921875 62.14453125 C-174.43426346 61.30928057 -169.34253068 62.28055176 -163.16015625 64.2734375 C-158.88785006 65.17452863 -156.49336084 64.45645278 -152.828125 62.125 C-151.91933594 61.43019531 -151.01054687 60.73539062 -150.07421875 60.01953125 C-149.11773437 59.30152344 -148.16125 58.58351562 -147.17578125 57.84375 C-146.29664063 57.17988281 -145.4175 56.51601562 -144.51171875 55.83203125 C-138.93596117 51.83203125 -138.93596117 51.83203125 -136.51171875 51.83203125 C-136.54652344 51.22617187 -136.58132812 50.6203125 -136.6171875 49.99609375 C-136.95472631 39.54846399 -134.33834082 30.8760419 -127.51171875 22.83203125 C-119.75624634 15.47798081 -111.92428861 13.33324633 -101.4453125 13.41015625 C-92.3814915 13.73265175 -85.04355487 17.58346353 -78.51171875 23.83203125 C-78.18171875 24.82203125 -77.85171875 25.81203125 -77.51171875 26.83203125 C-76.76486816 26.68056641 -76.01801758 26.52910156 -75.24853516 26.37304688 C-71.87833008 25.69071288 -68.50753578 25.01133534 -65.13671875 24.33203125 C-63.96109375 24.09355469 -62.78546875 23.85507812 -61.57421875 23.609375 C-60.45273438 23.38378906 -59.33125 23.15820312 -58.17578125 22.92578125 C-57.1388916 22.71630859 -56.10200195 22.50683594 -55.03369141 22.29101562 C-52.51171875 21.83203125 -52.51171875 21.83203125 -50.51171875 21.83203125 C-50.47046875 21.04828125 -50.42921875 20.26453125 -50.38671875 19.45703125 C-48.41507365 11.28878725 -43.47696942 4.4755317 -36.51171875 -0.16796875 C-35.91359375 -0.58046875 -35.31546875 -0.99296875 -34.69921875 -1.41796875 C-24.44961214 -7.18337247 -9.80711838 -5.79203257 0 0 Z M-20.51171875 6.83203125 C-16.51171875 7.83203125 -16.51171875 7.83203125 -16.51171875 7.83203125 Z M-23.44921875 24.89453125 C-25.68319528 27.66438734 -25.68319528 27.66438734 -26.13671875 30.83203125 C-25.28789883 34.90636685 -23.83446279 36.37609 -20.51171875 38.83203125 C-17.46863584 39.5821832 -17.46863584 39.5821832 -14.51171875 38.83203125 C-11.57663932 36.769543 -10.66736387 35.2892388 -9.51171875 31.89453125 C-9.27152267 28.7511489 -9.27152267 28.7511489 -11.01171875 26.01953125 C-15.25818942 22.30386941 -18.75207693 21.59653806 -23.44921875 24.89453125 Z M-109.51171875 42.83203125 C-111.25865867 45.21422206 -111.53448148 46.37677658 -111.38671875 49.33203125 C-110.09933659 53.01026599 -108.11202119 55.03188003 -104.63671875 56.76953125 C-101.223425 56.86992224 -99.3094536 55.71746126 -96.51171875 53.83203125 C-94.76171875 51.08203125 -94.76171875 51.08203125 -94.51171875 47.83203125 C-95.67434408 44.47333586 -96.55866437 42.48725614 -99.51171875 40.45703125 C-103.7935396 39.11896223 -106.01468587 40.32134098 -109.51171875 42.83203125 Z M56.48828125 42.83203125 C54.14014391 44.76370523 54.14014391 44.76370523 54.11328125 48.20703125 C54.1785715 51.83212208 54.1785715 51.83212208 56.23828125 54.20703125 C59.0986619 56.31430573 59.0986619 56.31430573 62.48828125 56.83203125 C66.38764114 55.27228729 68.1331364 54.36474852 70.48828125 50.83203125 C70.30628945 47.43485101 70.15076486 44.82575666 68.23828125 41.95703125 C63.60791035 38.98036424 60.80304277 39.68342149 56.48828125 42.83203125 Z M-137.51171875 114.83203125 C-138.33285156 115.52941406 -139.15398437 116.22679687 -140 116.9453125 C-174.43435375 146.98612829 -194.10232606 189.46099153 -198.26171875 234.64453125 C-198.36908275 236.70592002 -198.45103373 238.76874067 -198.51171875 240.83203125 C-198.56328125 242.13140625 -198.61484375 243.43078125 -198.66796875 244.76953125 C-200.01133049 293.51912956 -180.91626534 337.77881272 -148.359375 373.171875 C-121.3822069 401.03173163 -82.92601181 419.46215135 -44.51171875 423.83203125 C-43.5784375 423.94289063 -42.64515625 424.05375 -41.68359375 424.16796875 C5.22845976 428.9104441 52.76804173 415.38734598 89.48828125 385.83203125 C93.61726038 382.30134081 97.55755098 378.58043569 101.48828125 374.83203125 C102.31972656 374.06503906 103.15117187 373.29804688 104.0078125 372.5078125 C133.76462194 344.19317476 152.08560782 301.44663699 153.6105957 260.55200195 C153.69508795 256.70747706 153.73486758 252.86482674 153.73828125 249.01953125 C153.73895599 248.33395142 153.73963074 247.64837158 153.74032593 246.9420166 C153.67840722 207.17284903 140.03056362 165.9348637 113.48828125 135.83203125 C112.76898438 135.00316406 112.0496875 134.17429688 111.30859375 133.3203125 C109.0730145 130.78639083 106.79403887 128.30221271 104.48828125 125.83203125 C103.68003906 124.95804688 102.87179687 124.0840625 102.0390625 123.18359375 C70.73295297 90.52041818 25.02112048 73.70612952 -19.66943359 72.54638672 C-62.78681987 72.07707022 -104.78700084 86.74774601 -137.51171875 114.83203125 Z M-181.51171875 89.83203125 C-183.25865867 92.21422206 -183.53448148 93.37677658 -183.38671875 96.33203125 C-182.09933659 100.01026599 -180.11202119 102.03188003 -176.63671875 103.76953125 C-173.223425 103.86992224 -171.3094536 102.71746126 -168.51171875 100.83203125 C-166.76171875 98.08203125 -166.76171875 98.08203125 -166.51171875 94.83203125 C-167.67434408 91.47333586 -168.55866437 89.48725614 -171.51171875 87.45703125 C-175.7935396 86.11896223 -178.01468587 87.32134098 -181.51171875 89.83203125 Z M124.48828125 89.83203125 C122.74134133 92.21422206 122.46551852 93.37677658 122.61328125 96.33203125 C123.90066341 100.01026599 125.88797881 102.03188003 129.36328125 103.76953125 C132.776575 103.86992224 134.6905464 102.71746126 137.48828125 100.83203125 C139.23828125 98.08203125 139.23828125 98.08203125 139.48828125 94.83203125 C138.32565592 91.47333586 137.44133563 89.48725614 134.48828125 87.45703125 C130.2064604 86.11896223 127.98531413 87.32134098 124.48828125 89.83203125 Z M-222.51171875 146.83203125 C-222.51171875 147.16203125 -222.51171875 147.49203125 -222.51171875 147.83203125 C-219.87171875 147.83203125 -217.23171875 147.83203125 -214.51171875 147.83203125 C-214.51171875 147.50203125 -214.51171875 147.17203125 -214.51171875 146.83203125 C-217.15171875 146.83203125 -219.79171875 146.83203125 -222.51171875 146.83203125 Z M-222.32421875 161.95703125 C-224.59366086 163.90226734 -225.67164682 164.97578668 -226.51171875 167.83203125 C-226.34874943 171.09141759 -225.75532834 172.52961935 -223.69921875 175.08203125 C-220.91828416 177.3277009 -220.91828416 177.3277009 -217.51171875 177.83203125 C-213.64759709 176.51822988 -211.94983601 175.62064232 -209.94921875 172.01953125 C-209.37644243 167.84644664 -209.99084138 166.19320108 -212.51171875 162.83203125 C-216.37104868 161.04530443 -218.32356036 160.35676789 -222.32421875 161.95703125 Z M170.48828125 163.83203125 C168.14014391 165.76370523 168.14014391 165.76370523 168.11328125 169.20703125 C168.1785715 172.83212208 168.1785715 172.83212208 170.23828125 175.20703125 C173.0986619 177.31430573 173.0986619 177.31430573 176.48828125 177.83203125 C179.65798903 176.62754229 181.84273125 175.67405299 183.92578125 172.95703125 C184.67066122 170.14304025 184.45051969 168.58128394 183.48828125 165.83203125 C181.66324451 163.5664684 180.16843142 162.16113617 177.55078125 160.89453125 C174.51843856 160.80264208 172.91605287 162.10703562 170.48828125 163.83203125 Z M-230.51171875 207.83203125 C-229.51171875 209.83203125 -229.51171875 209.83203125 -229.51171875 209.83203125 Z M-202.51171875 234.83203125 C-201.51171875 237.83203125 -201.51171875 237.83203125 -201.51171875 237.83203125 Z M157.48828125 234.83203125 C158.48828125 238.83203125 158.48828125 238.83203125 158.48828125 238.83203125 Z M-242.51171875 245.83203125 C-243.34505208 248.83203125 -243.34505208 248.83203125 -242.51171875 251.83203125 C-240.02569426 255.19547614 -238.59746352 256.63260874 -234.44921875 257.39453125 C-230.79916296 256.6955844 -229.65607264 255.8500108 -227.51171875 252.83203125 C-226.59637957 249.69372549 -226.24002623 247.72120677 -227.19921875 244.58203125 C-229.35747394 241.70435766 -231.47276346 241.01851041 -234.94921875 240.39453125 C-238.79153863 241.05053708 -240.19081567 242.78170149 -242.51171875 245.83203125 Z M187.48828125 242.83203125 C185.14278451 246.35027636 184.90836722 247.68978819 185.48828125 251.83203125 C187.9442225 255.15477529 189.41394565 256.60821133 193.48828125 257.45703125 C197.56261685 256.60821133 199.03234 255.15477529 201.48828125 251.83203125 C202.32161458 248.83203125 202.32161458 248.83203125 201.48828125 245.83203125 C199.16737817 242.78170149 197.76810113 241.05053708 193.92578125 240.39453125 C191.37101178 240.85307962 189.65792148 241.41054282 187.48828125 242.83203125 Z M-258.51171875 246.83203125 C-258.51171875 248.81203125 -258.51171875 250.79203125 -258.51171875 252.83203125 C-258.18171875 252.83203125 -257.85171875 252.83203125 -257.51171875 252.83203125 C-257.51171875 250.85203125 -257.51171875 248.87203125 -257.51171875 246.83203125 C-257.84171875 246.83203125 -258.17171875 246.83203125 -258.51171875 246.83203125 Z M157.48828125 259.83203125 C158.48828125 262.83203125 158.48828125 262.83203125 158.48828125 262.83203125 Z M-202.51171875 260.83203125 C-201.51171875 262.83203125 -201.51171875 262.83203125 -201.51171875 262.83203125 Z M172.73828125 317.08203125 C170.45210445 318.78551822 170.45210445 318.78551822 168.48828125 320.83203125 C168.0544887 324.73616422 167.86231806 326.95104603 170.17578125 330.20703125 C172.84393464 332.08194985 174.2137192 332.83203125 177.48828125 332.83203125 C181.29572367 331.00153008 183.09560337 329.9176701 184.55078125 325.89453125 C184.47487535 322.17514225 183.91415166 320.64917108 181.48828125 317.83203125 C177.91444867 315.96742295 176.46201329 315.38942578 172.73828125 317.08203125 Z M-223.88671875 329.51953125 C-225.73093682 332.14399542 -226.43340898 333.62133072 -226.51171875 336.83203125 C-225.26718852 339.64859967 -224.15398715 341.34479316 -221.69921875 343.20703125 C-218.6065497 344.09065098 -216.57926672 343.74576894 -213.51171875 342.83203125 C-211.16295526 340.48326776 -209.71456878 338.1790568 -209.51171875 334.83203125 C-210.91094065 332.03358744 -212.29963258 330.04411742 -214.51171875 327.83203125 C-218.41585172 327.3982387 -220.63073353 327.20606806 -223.88671875 329.51953125 Z M125.11328125 391.51953125 C123.23836265 394.18768464 122.48828125 395.5574692 122.48828125 398.83203125 C124.31878242 402.63947367 125.4026424 404.43935337 129.42578125 405.89453125 C133.14517025 405.81862535 134.67114142 405.25790166 137.48828125 402.83203125 C139.15901167 400.06988153 139.15901167 400.06988153 139.48828125 396.83203125 C137.95916046 392.50586845 137.95916046 392.50586845 134.48828125 389.83203125 C129.47706741 389.34477876 129.47706741 389.34477876 125.11328125 391.51953125 Z M-180.88671875 396.51953125 C-182.76163735 399.18768464 -183.51171875 400.5574692 -183.51171875 403.83203125 C-181.68121758 407.63947367 -180.5973576 409.43935337 -176.57421875 410.89453125 C-172.96665976 410.8209076 -171.34508107 410.01776789 -168.51171875 407.83203125 C-166.96584999 404.74029373 -167.21812354 402.23773573 -167.51171875 398.83203125 C-168.92838542 396.24869792 -168.92838542 396.24869792 -171.51171875 394.83203125 C-175.49624859 394.2628127 -177.56665623 394.16053946 -180.88671875 396.51953125 Z M83.48828125 436.83203125 C84.48828125 438.83203125 84.48828125 438.83203125 84.48828125 438.83203125 Z M-110.51171875 442.83203125 C-111.67382094 445.2255462 -111.67382094 445.2255462 -111.51171875 447.83203125 C-109.89016246 451.31837726 -108.74718583 452.67505319 -105.51171875 454.83203125 C-102.11453851 454.65003945 -99.50544416 454.49451486 -96.63671875 452.58203125 C-95.1270853 450.23371255 -94.6450882 448.63278977 -94.51171875 445.83203125 C-96.13327504 442.34568524 -97.27625167 440.98900931 -100.51171875 438.83203125 C-105.1239126 438.10379012 -107.3154603 439.54698785 -110.51171875 442.83203125 Z M56.55078125 440.89453125 C54.31680472 443.66438734 54.31680472 443.66438734 53.86328125 446.83203125 C54.71210117 450.90636685 56.16553721 452.37609 59.48828125 454.83203125 C62.53136416 455.5821832 62.53136416 455.5821832 65.48828125 454.83203125 C68.42336068 452.769543 69.33263613 451.2892388 70.48828125 447.89453125 C70.72847733 444.7511489 70.72847733 444.7511489 68.98828125 442.01953125 C64.74181058 438.30386941 61.24792307 437.59653806 56.55078125 440.89453125 Z M-126.51171875 444.83203125 C-125.51171875 448.83203125 -125.51171875 448.83203125 -125.51171875 448.83203125 Z M-126.51171875 449.83203125 C-125.51171875 451.83203125 -125.51171875 451.83203125 -125.51171875 451.83203125 Z M-23.51171875 458.83203125 C-25.85985609 460.76370523 -25.85985609 460.76370523 -25.88671875 464.20703125 C-25.78985286 467.80067156 -25.78985286 467.80067156 -23.94921875 470.26953125 C-20.52857732 472.46225012 -18.50220596 472.46210818 -14.51171875 471.83203125 C-11.36513209 469.93553574 -11.36513209 469.93553574 -9.51171875 466.83203125 C-9.51171875 463.2601646 -9.76579608 460.95091526 -11.76171875 457.95703125 C-16.39208965 454.98036424 -19.19695723 455.68342149 -23.51171875 458.83203125 Z " fill="#80317B" transform="translate(272.51171875,11.16796875)"/>
<path d="M0 0 C0.67125916 0.00215515 1.34251831 0.0043103 2.03411865 0.00653076 C49.10230546 0.24743477 90.37079314 19.96417261 123.359375 52.8515625 C154.66787842 85.85511229 168.97477038 129.58414569 168.09375 174.50390625 C166.65963096 217.29443305 148.22743131 255.76622518 118.8125 286.3125 C118.235 286.9415625 117.6575 287.570625 117.0625 288.21875 C91.69880282 315.10426901 50.78281794 332.9216141 13.99291992 334.47363281 C-21.74638526 334.85357969 -21.74638526 334.85357969 -36.1875 331.3125 C-37.43345947 331.01448486 -37.43345947 331.01448486 -38.70458984 330.71044922 C-81.93713401 320.07949573 -119.81491028 292.92836526 -143.2487793 254.97583008 C-166.04027379 216.70835493 -173.66790452 170.36412255 -162.8984375 126.94921875 C-156.88947307 104.14237366 -147.19318109 82.63890586 -132.1875 64.3125 C-131.7529248 63.77786133 -131.31834961 63.24322266 -130.87060547 62.69238281 C-117.48444926 46.2866141 -102.39875862 33.12606088 -84.1875 22.3125 C-83.31254883 21.79260498 -83.31254883 21.79260498 -82.41992188 21.26220703 C-69.10232165 13.48142468 -54.85074393 8.32091521 -39.9375 4.5 C-39.18315674 4.30510986 -38.42881348 4.11021973 -37.65161133 3.90942383 C-25.23858955 0.90962125 -12.73980368 -0.05636369 0 0 Z M-76.1875 30.3125 C-76.84991699 30.68358887 -77.51233398 31.05467773 -78.19482422 31.43701172 C-93.9921808 40.45261696 -108.42845873 52.49508168 -119.5625 66.9375 C-120.03163818 67.54376221 -120.50077637 68.15002441 -120.98413086 68.7746582 C-122.39559293 70.6130248 -123.79421317 72.46033115 -125.1875 74.3125 C-125.96480469 75.34503906 -126.74210937 76.37757813 -127.54296875 77.44140625 C-152.21647756 111.63495916 -160.32884086 152.34260956 -153.81298828 193.68896484 C-148.36648886 225.5163269 -133.93635725 253.79843522 -111.52587891 276.92724609 C-110.37178424 278.12176144 -109.23673142 279.33462082 -108.10546875 280.55078125 C-98.33509718 290.8148137 -86.48689937 298.45038504 -74.1875 305.3125 C-73.09050781 305.92996094 -71.99351562 306.54742187 -70.86328125 307.18359375 C-33.61560556 326.97555397 9.12155847 328.51629701 48.96435547 316.67285156 C88.45328238 304.16208097 120.3180565 274.9192917 139.5625 238.7421875 C147.95697377 222.47789457 154.15135836 203.585058 155.8125 185.3125 C155.87808105 184.61431152 155.94366211 183.91612305 156.01123047 183.19677734 C159.79376547 140.28269321 146.9225157 99.24988786 119.60180664 66.12158203 C92.94211265 34.37661929 55.91794296 15.813568 14.98046875 10.84765625 C11.92050581 10.58267725 8.88192093 10.41055095 5.8125 10.3125 C4.966875 10.27253906 4.12125 10.23257813 3.25 10.19140625 C-24.16896725 9.48085375 -52.35493766 16.95942038 -76.1875 30.3125 Z " fill="#823077" transform="translate(250.1875,92.6875)"/>
<path d="M0 0 C30.29518382 25.92606463 48.42041626 62.87723452 52.25 102.4375 C54.11283454 131.36091026 49.05376706 159.38845668 36.25 185.4375 C35.70601563 186.55382812 35.16203125 187.67015625 34.6015625 188.8203125 C16.7279123 223.64456054 -15.28213995 251.04704589 -52.47460938 263.33789062 C-55.30605141 264.20593825 -58.14542082 265.02399392 -61 265.8125 C-61.86173828 266.0511377 -62.72347656 266.28977539 -63.61132812 266.53564453 C-75.95541126 269.75189679 -88.20911715 270.80578081 -100.9375 270.75 C-101.61253571 270.74784485 -102.28757141 270.7456897 -102.98306274 270.74346924 C-146.73374529 270.52039292 -183.73192365 252.3709296 -214.3359375 221.859375 C-243.51052396 191.12022081 -255.63880089 150.76213894 -254.99609375 109.13671875 C-253.80571833 67.31960015 -234.32600421 31.09923325 -205.328125 2.0078125 C-148.20514557 -51.85647347 -58.4895449 -49.15956618 0 0 Z M-209.5546875 22.4296875 C-234.4187889 51.01178537 -246.82583654 88.76690985 -244.5 126.46484375 C-241.71239966 160.55350894 -227.42448331 190.13782112 -204.75 215.4375 C-203.69232422 216.62279297 -203.69232422 216.62279297 -202.61328125 217.83203125 C-178.27347231 243.56268642 -141.73458017 258.54772505 -106.62890625 259.640625 C-70.34614712 260.17260046 -36.4936109 249.18492854 -8.75 225.4375 C-7.93015625 224.74011719 -7.1103125 224.04273438 -6.265625 223.32421875 C19.63852609 200.67819846 37.75135361 167.93681064 41.25 133.4375 C41.38277344 132.13425781 41.51554687 130.83101562 41.65234375 129.48828125 C44.68022742 94.1483827 34.59246836 57.2234061 12.25 29.4375 C11.84555664 28.92767578 11.44111328 28.41785156 11.02441406 27.89257812 C-13.21238715 -2.49004852 -47.20676192 -20.73091582 -85.65234375 -25.95703125 C-132.66685286 -31.13484062 -177.84089468 -11.94797206 -209.5546875 22.4296875 Z " fill="#823077" transform="translate(351.75,143.5625)"/>
<path d="M0 0 C7.29593424 4.17585869 11.21158203 9.57869953 13.55859375 17.59765625 C14.45692496 26.35638554 13.25906301 33.38802176 7.68359375 40.34765625 C1.8109597 46.46447467 -3.8453977 48.24768587 -12.25390625 48.53515625 C-20.59971244 48.24798873 -25.28610133 46.31139048 -31.00390625 40.28515625 C-35.98028946 34.12716607 -37.76343077 28.39586496 -37.47265625 20.484375 C-36.65711649 13.38238293 -33.58205815 7.7306078 -28.19140625 3.03515625 C-19.7739093 -2.90660631 -9.54610495 -4.26696999 0 0 Z M-26.25 4.84375 C-30.41872354 9.42847922 -32.92473156 13.15506957 -33.50390625 19.41015625 C-32.96776697 25.62937192 -30.5304136 30.57217727 -26.19140625 35.03515625 C-23.24068781 36.96985474 -23.24068781 36.96985474 -20.19140625 38.03515625 C-18.70640625 37.54015625 -18.70640625 37.54015625 -17.19140625 37.03515625 C-18.15046875 36.10703125 -18.15046875 36.10703125 -19.12890625 35.16015625 C-22.55619972 31.6290054 -22.47111068 29.03217532 -22.41015625 24.29296875 C-22.11030492 21.1980747 -21.19453116 19.39598203 -19.19140625 17.03515625 C-16.14638474 15.15265922 -13.81055943 14.76323543 -10.25390625 14.78515625 C-9.41988281 14.78 -8.58585937 14.77484375 -7.7265625 14.76953125 C-4.77120408 15.0791836 -2.77147083 15.53450645 -0.19140625 17.03515625 C0.953125 19.63671875 0.953125 19.63671875 1.62109375 22.66015625 C1.97107422 24.16449219 1.97107422 24.16449219 2.328125 25.69921875 C2.48667969 26.47007812 2.64523438 27.2409375 2.80859375 28.03515625 C5.25505184 25.58869816 5.49912011 23.63432805 5.8359375 20.25390625 C5.75479774 13.66999453 2.31979654 8.54635904 -2.19140625 4.03515625 C-10.05213521 -0.9205207 -19.04669972 -1.48476619 -26.25 4.84375 Z " fill="#F3CD4D" transform="translate(220.19140625,170.96484375)"/>
<path d="M0 0 C6.588091 4.44168847 10.56230107 9.50744855 12.52734375 17.26171875 C13.68142567 24.79072937 12.545917 31.44256738 8.5234375 37.9296875 C4.564553 42.94167428 -0.75623978 46.72475765 -7.0625 47.9375 C-15.53689621 48.83667285 -22.01596262 47.89896571 -29.0625 42.9375 C-34.79472217 38.05359824 -37.33055213 32.07920784 -38.37890625 24.71484375 C-38.77125129 17.53872636 -36.78795724 10.98330016 -31.96875 5.59765625 C-23.28918648 -2.40200813 -11.07934959 -5.73785737 0 0 Z M-28.12109375 10.7109375 C-32.11270955 15.04279498 -34.95092972 18.95816 -35.12109375 25.02734375 C-34.81009641 30.89616453 -33.15625578 35.64791535 -29.0625 39.9375 C-23.80074415 43.60559376 -18.55019676 46.01878279 -12.0625 44.9375 C-6.03830999 42.93336634 -1.23636747 39.50220843 1.9375 33.9375 C2.94158746 30.63076967 3.53729849 27.36681291 3.9375 23.9375 C3.36 24.700625 2.7825 25.46375 2.1875 26.25 C-1.53811138 30.70003581 -4.05856335 32.45855606 -10.03515625 33.00390625 C-14.17194573 32.86840448 -16.97686608 30.98569827 -19.875 28.1875 C-22.28243965 23.6260354 -22.40869335 20.09147783 -20.9375 15.1875 C-18.91669542 11.68477206 -17.67081068 10.60964397 -14.0625 8.9375 C-13.299375 8.545625 -12.53625 8.15375 -11.75 7.75 C-11.193125 7.481875 -10.63625 7.21375 -10.0625 6.9375 C-16.83644054 5.35210966 -22.69300268 6.03474519 -28.12109375 10.7109375 Z " fill="#1889CA" transform="translate(221.0625,304.0625)"/>
<path d="M0 0 C5.83031754 5.30669662 9.40898551 10.09769032 10.37109375 18.078125 C10.53258928 25.79191162 9.72073713 31.72459704 5 38 C-0.7917424 43.6165889 -6.58520537 46.28325699 -14.6875 46.4375 C-22.42067973 46.2998413 -28.39547136 44.7246796 -33.875 39.0625 C-40.1043969 31.15595778 -40.8676458 23.92722012 -40 14 C-38.27128166 6.84148179 -32.74020464 2.2317558 -27 -2 C-18.9160641 -6.31143248 -7.4377805 -5.17470814 0 0 Z M-26.01953125 2.87890625 C-30.37592035 7.69666446 -32.1431859 10.90606216 -32.1875 17.5 C-32.20167969 18.4590625 -32.21585937 19.418125 -32.23046875 20.40625 C-32.18755111 23.23746139 -32.18755111 23.23746139 -30 26 C-29.773125 24.783125 -29.54625 23.56625 -29.3125 22.3125 C-28.1874986 17.96660419 -26.76585875 15.64411359 -23 13 C-18.54301499 11.67606165 -15.05867254 11.6667142 -10.625 13.0625 C-7.38456815 15.45424732 -6.31526138 17.20035601 -5 21 C-4.46523616 26.08025648 -5.01685758 28.86949511 -8 33 C-8.66 33.99 -9.32 34.98 -10 36 C-5.44874062 35.46455772 -2.58570594 33.82278978 1 31 C5.43038332 25.2524757 6.48889778 21.21124231 6 14 C3.94790881 7.73572162 0.8829071 4.24226108 -4.25 0.25 C-11.81962382 -3.1907381 -19.78341593 -2.9229728 -26.01953125 2.87890625 Z " fill="#F4A13C" transform="translate(298,173)"/>
<path d="M0 0 C6.2875215 3.64014403 10.27369254 9.1305378 12.5 16 C13.30544924 23.83908159 13.64495998 31.63396952 8.5 38 C2.08980208 44.81159551 -2.90633676 47.97120006 -12.3125 48.375 C-20.12860808 48.21055218 -25.64547841 45.99837179 -31.375 40.6875 C-37.36742847 34.06941195 -38.13053313 28.30548653 -37.90625 19.51171875 C-37.18601561 13.2858465 -35.08691554 8.50346665 -30.5625 4.125 C-21.70120281 -2.85662809 -10.53844547 -4.74949667 0 0 Z M-10.5 7 C-9.736875 7.556875 -8.97375 8.11375 -8.1875 8.6875 C-4.32267709 12.01304529 -2.68322108 14.32047344 -2.125 19.4375 C-2.54352122 23.41345159 -3.24811385 25.69723365 -5.5 29 C-9.02724953 31.60344608 -11.77695969 32.23531253 -16.0625 32 C-20.57627834 31.29329733 -22.7546019 29.74372468 -25.5 26 C-26.8125 22.6875 -26.8125 22.6875 -27.5 20 C-29.80652805 23.25627489 -29.6628909 26.05243975 -29.03125 29.9140625 C-27.47847893 36.01097245 -24.33478912 39.58996366 -19.18359375 43.0546875 C-14.78973251 45.52177432 -10.39082272 45.54783566 -5.5 45 C0.20482136 43.37743305 4.05225426 40.14105728 7.3671875 35.27734375 C10.04289443 29.89825017 10.07723022 24.92410073 8.375 19.25 C4.71989726 12.91448858 1.59400751 9.2802167 -5.5 7 C-8.29340157 6.74609778 -8.29340157 6.74609778 -10.5 7 Z " fill="#1D57A2" transform="translate(295.5,304)"/>
<path d="M0 0 C6.37077944 4.48566467 9.6113769 9.94566098 11.19140625 17.54296875 C12.14428542 24.43810833 10.54976796 30.93192711 6.75 36.75 C2.72833477 41.77941429 -1.48901571 45.05600921 -7.80859375 46.54296875 C-15.70031935 47.41178258 -23.36290287 47.67350745 -29.80859375 42.54296875 C-35.79725473 37.17257034 -38.99756213 31.48291862 -40.0859375 23.51171875 C-40.42919068 16.59173468 -38.38026822 10.13833947 -34.05859375 4.73046875 C-25.10747823 -4.86637401 -11.28977478 -6.4694215 0 0 Z M-21.80859375 6.54296875 C-22.13859375 7.20296875 -22.46859375 7.86296875 -22.80859375 8.54296875 C-21.83019531 8.56423828 -21.83019531 8.56423828 -20.83203125 8.5859375 C-14.43730241 8.93491238 -11.20356544 9.80992232 -6.80859375 14.54296875 C-5.30208599 19.06249202 -5.06295456 22.90256253 -7.05859375 27.29296875 C-8.87216539 29.62470371 -10.29396577 31.00259454 -12.80859375 32.54296875 C-15.5 32.8359375 -15.5 32.8359375 -18.37109375 32.73046875 C-19.32113281 32.70339844 -20.27117187 32.67632812 -21.25 32.6484375 C-22.09433594 32.61363281 -22.93867188 32.57882812 -23.80859375 32.54296875 C-24.79859375 32.54296875 -25.78859375 32.54296875 -26.80859375 32.54296875 C-25.54287142 33.69444536 -24.27081469 34.83896189 -22.99609375 35.98046875 C-21.93455078 36.93759766 -21.93455078 36.93759766 -20.8515625 37.9140625 C-16.21315959 41.61236845 -10.44883074 40.97246956 -4.80859375 40.54296875 C0.6976758 38.77680682 3.96126891 35.19316647 7.19140625 30.54296875 C9.7149329 25.49591546 9.46771168 20.92034383 8.19140625 15.54296875 C6.12581103 9.9187122 2.45024315 6.33384272 -2.80859375 3.54296875 C-9.91294368 1.38137391 -15.71002515 2.46733998 -21.80859375 6.54296875 Z " fill="#ED3925" transform="translate(339.80859375,238.45703125)"/>
<path d="M0 0 C5.45580683 3.91046603 10.09153447 8.86002904 11.26171875 15.62109375 C12.06358983 24.49258809 11.28942103 31.50670941 5.68359375 38.625 C-0.10302495 44.86777108 -5.15454928 46.76670734 -13.55078125 47.12109375 C-21.20825925 46.92579144 -27.19049957 45.28713482 -32.61328125 39.68359375 C-38.83497055 31.78683425 -39.6266887 24.53976931 -38.73828125 14.62109375 C-36.92746105 7.83322881 -31.87209908 2.13888344 -25.9296875 -1.48046875 C-17.44080545 -5.25722709 -7.97592606 -4.53381948 0 0 Z M-34.3203125 12.68359375 C-37.59432563 17.15717643 -37.17021229 22.32163209 -36.73828125 27.62109375 C-34.90790215 33.45542714 -30.56485694 37.08874097 -25.73828125 40.62109375 C-20.71785596 42.29456885 -15.35289144 42.75730858 -10.41015625 40.609375 C-7.13675954 38.59078036 -4.40046658 36.39725644 -1.73828125 33.62109375 C-2.23328125 32.63109375 -2.23328125 32.63109375 -2.73828125 31.62109375 C-3.25390625 31.95109375 -3.76953125 32.28109375 -4.30078125 32.62109375 C-7.67671199 34.00609098 -10.11243241 33.99618156 -13.73828125 33.62109375 C-17.44218146 31.59443137 -19.39191136 30.14064859 -21.73828125 26.62109375 C-22.33483345 22.05010938 -22.26713866 17.89035153 -20.48828125 13.62109375 C-17.49092324 10.19554174 -14.43195948 9.38818301 -9.98828125 8.99609375 C-9.1890625 8.92132813 -8.38984375 8.8465625 -7.56640625 8.76953125 C-6.66148437 8.69605469 -6.66148437 8.69605469 -5.73828125 8.62109375 C-8.69287316 5.46273688 -10.56851527 3.81528967 -15.0078125 3.41796875 C-24.15313616 3.24939136 -28.42311454 5.81003851 -34.3203125 12.68359375 Z " fill="#2EAC4F" transform="translate(186.73828125,238.37890625)"/>
<path d="M0 0 C5.79493826 4.15353951 9.41075454 8.70795767 11.26171875 15.62109375 C12.29787455 24.21573346 11.55825065 31.58027129 6.26171875 38.62109375 C0.46997635 44.23768265 -5.32348662 46.90435074 -13.42578125 47.05859375 C-21.15896098 46.92093505 -27.13375261 45.34577335 -32.61328125 39.68359375 C-38.83497055 31.78683425 -39.6266887 24.53976931 -38.73828125 14.62109375 C-36.92746105 7.83322881 -31.87209908 2.13888344 -25.9296875 -1.48046875 C-17.44080545 -5.25722709 -7.97592606 -4.53381948 0 0 Z M-29.05078125 4.87109375 C-32.37001537 10.28021601 -34.53740719 15.08672747 -33.390625 21.59375 C-32.19244955 25.31742101 -30.17569716 28.57622216 -27.73828125 31.62109375 C-27.07828125 31.95109375 -26.41828125 32.28109375 -25.73828125 32.62109375 C-25.79628906 31.82445312 -25.85429687 31.0278125 -25.9140625 30.20703125 C-26.32853828 20.4727715 -26.32853828 20.4727715 -23.36328125 16.93359375 C-19.42890483 13.46759547 -17.07877153 13.32850964 -11.9921875 13.41015625 C-8.82404226 13.70665511 -7.12266002 14.51723013 -4.73828125 16.62109375 C-1.34958831 21.52885594 -1.39433578 25.88866933 -1.73828125 31.62109375 C2.88756264 27.36044807 4.99202157 24.53382332 5.57421875 18.24609375 C4.98361659 11.39510865 2.08145338 6.44082838 -2.73828125 1.62109375 C-11.96416079 -3.70152906 -21.45926421 -2.51524715 -29.05078125 4.87109375 Z " fill="#59358F" transform="translate(261.73828125,238.37890625)"/>
<path d="M0 0 C-0.4375 2.75 -0.4375 2.75 -2 6 C-4.16320193 7.17155155 -6.37627679 7.98597399 -8.671875 8.8671875 C-12.40130158 10.68184137 -14.76441014 13.55878847 -17 17 C-18.78793044 22.36379133 -18.69055197 27.88772338 -16.9375 33.25 C-12.69605595 39.27011414 -8.20653669 42.52927823 -1 44 C-1.33 45.65 -1.66 47.3 -2 49 C-9.66240594 46.4899015 -14.73997176 43.62795442 -18.875 36.5625 C-22.07339658 29.63781615 -22.34628901 21.91791455 -20.3359375 14.57421875 C-17.42992112 8.06726903 -12.31672305 2.65890798 -5.6875 0 C-2 -1 -2 -1 0 0 Z " fill="#8DC640" transform="translate(169,236)"/>
<path d="M0 0 C4.41477273 2.54442815 7.95720163 5.32846575 10.25390625 9.921875 C10.43953125 10.623125 10.62515625 11.324375 10.81640625 12.046875 C8.83640625 12.046875 6.85640625 12.046875 4.81640625 12.046875 C4.48640625 12.706875 4.15640625 13.366875 3.81640625 14.046875 C3.25953125 12.974375 2.70265625 11.901875 2.12890625 10.796875 C-0.33496755 6.57674513 -2.66990355 3.93769153 -7.41015625 2.2578125 C-13.56737032 0.67561817 -18.61447546 0.78846162 -24.18359375 4.046875 C-26.48997954 6.19028278 -28.32417393 8.51684475 -30.18359375 11.046875 C-32.18359375 13.046875 -32.18359375 13.046875 -35.18359375 14.046875 C-33.067942 7.50758778 -29.49358196 3.50873026 -23.62109375 0.171875 C-16.12922569 -3.28934572 -7.58129547 -3.35539591 0 0 Z " fill="#F8EF21" transform="translate(220.18359375,170.953125)"/>
<path d="M0 0 C9.24 0 18.48 0 28 0 C21.33665784 4.99750662 15.1006058 4.54610826 7 4 C4.31070196 3.27041126 2.43171717 2.38955267 0 1 C0 0.67 0 0.34 0 0 Z " fill="#E85833" transform="translate(269,215)"/>
<path d="M0 0 C-0.5 2.875 -0.5 2.875 -2 6 C-4.68310961 7.18275852 -7.0681289 7.52711756 -10 8 C-9.375 4.625 -9.375 4.625 -8 1 C-3 -1.5 -3 -1.5 0 0 Z " fill="#6FBA48" transform="translate(169,236)"/>
<path d="M0 0 C2.64 0.66 5.28 1.32 8 2 C7.67 3.65 7.34 5.3 7 7 C4.36 6.01 1.72 5.02 -1 4 C-0.67 2.68 -0.34 1.36 0 0 Z " fill="#6FBB47" transform="translate(160,278)"/>
</svg>
